<?xml version="1.0" encoding="UTF-8" standalone="no"?>
<!DOCTYPE svg PUBLIC "-//W3C//DTD SVG 1.1//EN" "http://www.w3.org/Graphics/SVG/1.1/DTD/svg11.dtd">
<svg width="100%" height="100%" viewBox="0 0 967 186" version="1.1" xmlns="http://www.w3.org/2000/svg" xmlns:xlink="http://www.w3.org/1999/xlink" xml:space="preserve" xmlns:serif="http://www.serif.com/" style="fill-rule:evenodd;clip-rule:evenodd;stroke-linejoin:round;stroke-miterlimit:2;">
    <g transform="matrix(1,0,0,1,-187.99,-1682.09)">
        <g transform="matrix(4.16667,0,0,4.16667,0,0)">
            <g transform="matrix(0.638584,0,0,0.638584,17.3386,119.961)">
                <g transform="matrix(49.9931,0,0,-49.9931,72.2078,479.623)">
                    <path d="M0.116,0.682C0.106,0.677 0.097,0.671 0.089,0.665C-0.033,0.575 -0.029,0.421 0.097,0.336C0.118,0.322 0.139,0.312 0.157,0.305C0.176,0.298 0.196,0.295 0.217,0.293C0.28,0.287 0.303,0.262 0.303,0.262C0.38,0.218 0.313,0.063 0.313,0.063C0.286,-0.002 0.3,-0.056 0.326,-0.097C0.358,-0.148 0.412,-0.182 0.471,-0.194C0.587,-0.217 0.617,-0.263 0.617,-0.263C0.651,-0.298 0.621,-0.401 0.608,-0.434C0.606,-0.441 0.603,-0.448 0.602,-0.455C0.581,-0.564 0.641,-0.626 0.693,-0.659C0.738,-0.688 0.794,-0.699 0.847,-0.688C0.989,-0.658 0.999,-0.498 0.999,-0.498C1.004,-0.444 0.983,-0.401 0.956,-0.368C0.92,-0.325 0.868,-0.298 0.812,-0.287C0.743,-0.274 0.714,-0.253 0.714,-0.253C0.641,-0.213 0.698,-0.075 0.698,-0.075C0.7,-0.07 0.701,-0.065 0.703,-0.061C0.736,0.051 0.668,0.166 0.555,0.196C0.499,0.21 0.463,0.225 0.439,0.237C0.407,0.252 0.387,0.283 0.384,0.318C0.384,0.319 0.384,0.319 0.384,0.32C0.383,0.347 0.388,0.374 0.397,0.399C0.41,0.439 0.413,0.479 0.413,0.511C0.412,0.562 0.394,0.612 0.358,0.649C0.316,0.693 0.266,0.706 0.223,0.706C0.163,0.706 0.116,0.682 0.116,0.682Z" style="fill:url(#_Linear1);fill-rule:nonzero;"/>
                </g>
                <g transform="matrix(0,20.8592,20.8592,0,53.9307,493.359)">
                    <ellipse cx="0.5" cy="-0" rx="0.5" ry="0.5" style="fill:url(#_Linear2);"/>
                </g>
                <g transform="matrix(35.337,0,0,-35.337,57.9659,493.469)">
                    <path d="M0.186,0.685C0.106,0.649 0.059,0.588 0.035,0.538C0.029,0.524 0.021,0.511 0.016,0.496C-0.038,0.335 0.062,0.229 0.062,0.229C0.143,0.136 0.248,0.116 0.248,0.116C0.332,0.099 0.382,0.075 0.382,0.075C0.492,0.024 0.453,-0.123 0.437,-0.17C0.432,-0.187 0.426,-0.204 0.423,-0.221C0.392,-0.372 0.464,-0.464 0.464,-0.464C0.594,-0.645 0.791,-0.573 0.791,-0.573C0.953,-0.527 0.985,-0.398 0.985,-0.398C1.053,-0.154 0.871,-0.06 0.871,-0.06C0.777,0.001 0.645,0.027 0.645,0.027L0.643,0.027C0.59,0.034 0.549,0.077 0.544,0.13C0.536,0.207 0.565,0.298 0.565,0.298C0.644,0.577 0.449,0.661 0.449,0.661C0.381,0.693 0.323,0.703 0.28,0.703C0.22,0.703 0.186,0.685 0.186,0.685Z" style="fill:url(#_Linear3);fill-rule:nonzero;"/>
                </g>
                <g>
                    <text x="127.635px" y="510.379px" style="font-family:'Lato-Regular', 'Lato', sans-serif;font-size:22.345px;fill:rgb(81,82,82);">A<tspan x="142.963px 155.922px 167.473px 180.298px 188.755px " y="510.379px 510.379px 510.379px 510.379px 510.379px ">dapt,</tspan></text>
                    <text x="200.435px" y="510.379px" style="font-family:'Lato-Regular', 'Lato', sans-serif;font-size:22.345px;fill:rgb(81,82,82);">P<tspan x="213.707px 225.951px 234.464px 244.585px 257.701px 270.615px 282.167px 287.886px 293.695px 303.816px 316.06px " y="510.379px 510.379px 510.379px 510.379px 510.379px 510.379px 510.379px 510.379px 510.379px 510.379px 510.379px ">ersonalise,</tspan></text>
                    <text x="327.757px" y="510.379px" style="font-family:'Lato-Regular', 'Lato', sans-serif;font-size:22.345px;fill:rgb(81,82,82);">I<tspan x="334.292px 347.05px 355.451px 367.695px 376.096px 387.647px 398.763px " y="510.379px 510.379px 510.379px 510.379px 510.379px 510.379px 510.379px ">nteract</tspan></text>
                </g>
                <g transform="matrix(1,0,0,1,154.266,459.164)">
                    <path d="M0,9.128L-6.873,-6.872L-19.758,23.249C-19.902,23.678 -20.207,23.893 -20.671,23.893L-26.255,23.893C-26.685,23.893 -26.81,23.678 -26.631,23.249L-10.363,-14.174C-10.148,-14.568 -9.825,-14.765 -9.396,-14.765L-4.296,-14.765C-3.831,-14.765 -3.526,-14.568 -3.382,-14.174L12.886,23.249C13.064,23.678 12.939,23.893 12.51,23.893L6.926,23.893C6.461,23.893 6.156,23.678 6.013,23.249L2.201,14.39C2.129,14.211 1.968,14.121 1.718,14.121L-11.598,14.121C-12.027,14.121 -12.17,13.906 -12.027,13.477L-10.47,9.718C-10.327,9.325 -10.023,9.128 -9.557,9.128L0,9.128Z" style="fill:rgb(247,147,29);fill-rule:nonzero;"/>
                </g>
                <g transform="matrix(1,0,0,1,177.447,461.06)">
                    <path d="M0,5.31C0,4.88 0.159,4.498 0.625,4.498L17.245,4.481C18.284,4.481 19.152,4.132 19.849,3.434C20.548,2.735 20.896,1.868 20.896,0.83L20.896,-7.277C20.896,-8.316 20.548,-9.184 19.849,-9.881C19.152,-10.58 18.284,-10.929 17.245,-10.929L1.215,-10.929C1.143,-10.929 1.084,-10.87 1.084,-10.409L1.084,21.675C1.084,21.752 0.87,21.984 0.44,21.984L-4.852,21.984C-5.131,21.984 -5.358,21.758 -5.358,21.478L-5.358,-16.029C-5.358,-16.459 -5.126,-16.674 -4.661,-16.674L18.641,-16.674C21.365,-16.674 23.618,-15.609 25.401,-13.48C26.724,-11.899 27.339,-9.838 27.339,-7.776L27.339,1.114C27.339,3.175 26.724,5.237 25.401,6.818C23.618,8.946 21.365,10.011 18.641,10.011L5.081,10.011C4.801,10.011 0.986,10.025 0.549,10.025L0,5.31Z" style="fill:rgb(247,147,29);fill-rule:nonzero;"/>
                </g>
                <g transform="matrix(1,0,0,1,211.608,482.412)">
                    <path d="M0,-37.368C0,-37.798 0.232,-38.013 0.698,-38.013L5.99,-38.013C6.24,-38.013 6.442,-37.81 6.442,-37.56L6.442,-0.052C6.442,0.413 6.228,0.645 5.798,0.645L0.506,0.645C0.227,0.645 0,0.418 0,0.139L0,-37.368Z" style="fill:rgb(247,147,29);fill-rule:nonzero;"/>
                </g>
                <g transform="matrix(1,0,0,1,242.725,473.823)">
                    <path d="M0,-20.188C0.25,-20.188 0.453,-19.985 0.453,-19.735L0.453,8.537C0.453,9.002 0.238,9.235 -0.191,9.235L-5.483,9.235C-5.763,9.235 -5.99,9.008 -5.99,8.727L-5.99,-19.544C-5.99,-19.973 -5.758,-20.188 -5.292,-20.188L0,-20.188ZM-19.175,-23.679C-19.455,-23.679 -19.682,-23.906 -19.682,-24.186L-19.682,-28.779C-19.682,-29.208 -19.448,-29.423 -18.983,-29.423L13.5,-29.423C13.964,-29.423 14.198,-29.208 14.198,-28.779L14.198,-24.185C14.198,-23.905 13.971,-23.679 13.691,-23.679L-19.175,-23.679Z" style="fill:rgb(81,82,82);fill-rule:nonzero;"/>
                </g>
                <g transform="matrix(1,0,0,1,302.418,457.823)">
                    <path d="M0,11.812C-0.172,11.454 -0.205,11.042 -0.103,10.577L6.672,-12.778C6.775,-13.208 7.048,-13.423 7.493,-13.423L12.728,-13.423C13.172,-13.423 13.326,-13.208 13.19,-12.778L3.644,19.275C3.541,19.526 3.472,19.65 3.439,19.65C3.37,19.65 3.285,19.544 3.183,19.329L0,11.812ZM-3.593,25.235C-4.037,25.235 -4.328,25.038 -4.465,24.644L-14.268,1.288L-24.686,24.644C-24.858,25.038 -25.166,25.235 -25.609,25.235L-30.023,25.235C-30.468,25.235 -30.742,25.02 -30.845,24.591L-41.725,-12.778C-41.827,-13.208 -41.674,-13.423 -41.263,-13.423L-35.976,-13.423C-35.533,-13.423 -35.258,-13.208 -35.155,-12.778L-27.149,15.893L-17.09,-6.926C-16.884,-7.32 -16.577,-7.517 -16.166,-7.517L-12.317,-7.517C-11.873,-7.517 -11.565,-7.32 -11.393,-6.926L1.899,24.644C2.036,25.038 1.899,25.235 1.489,25.235L-3.593,25.235Z" style="fill:rgb(81,82,82);fill-rule:nonzero;"/>
                </g>
                <g transform="matrix(1,0,0,1,320.492,482.412)">
                    <path d="M0,-37.368C0,-37.798 0.232,-38.013 0.698,-38.013L5.99,-38.013C6.24,-38.013 6.442,-37.81 6.442,-37.56L6.442,-0.052C6.442,0.413 6.228,0.645 5.798,0.645L0.506,0.645C0.227,0.645 0,0.418 0,0.139L0,-37.368Z" style="fill:rgb(81,82,82);fill-rule:nonzero;"/>
                </g>
                <g transform="matrix(1,0,0,1,337.512,449.691)">
                    <path d="M0,28.074C0,27.824 0.203,27.621 0.453,27.621L21.184,27.621C23.095,27.621 24.644,26.072 24.644,24.162L24.644,20.021C24.644,18.11 23.095,16.561 21.184,16.561L7.125,16.561C5.049,16.561 2.976,15.913 1.418,14.541C-0.673,12.699 -1.718,10.402 -1.718,7.648L-1.718,3.406C-1.718,0.936 -0.877,-1.13 0.805,-2.795C2.487,-4.46 4.545,-5.292 6.98,-5.292L28.325,-5.292C28.576,-5.292 28.779,-5.089 28.779,-4.838L28.779,-0.245C28.779,0.221 28.564,0.453 28.134,0.453L8.077,0.453C6.166,0.453 4.617,2.002 4.617,3.913L4.617,7.356C4.617,9.267 6.166,10.816 8.077,10.816L22.282,10.816C24.752,10.816 26.818,11.647 28.483,13.312C30.148,14.977 30.98,17.044 30.98,19.514L30.98,24.668C30.98,27.103 30.148,29.16 28.483,30.842C26.818,32.526 24.752,33.366 22.282,33.366L0.644,33.366C0.215,33.366 0,33.133 0,32.668L0,28.074Z" style="fill:rgb(81,82,82);fill-rule:nonzero;"/>
                </g>
                <g transform="matrix(1,0,0,1,392.361,473.823)">
                    <path d="M0,-20.188C0.25,-20.188 0.453,-19.985 0.453,-19.735L0.453,8.537C0.453,9.002 0.238,9.235 -0.191,9.235L-5.483,9.235C-5.763,9.235 -5.99,9.008 -5.99,8.727L-5.99,-19.544C-5.99,-19.973 -5.758,-20.188 -5.292,-20.188L0,-20.188ZM-19.175,-23.679C-19.455,-23.679 -19.682,-23.906 -19.682,-24.186L-19.682,-28.779C-19.682,-29.208 -19.448,-29.423 -18.983,-29.423L13.5,-29.423C13.964,-29.423 14.198,-29.208 14.198,-28.779L14.198,-24.185C14.198,-23.905 13.971,-23.679 13.691,-23.679L-19.175,-23.679Z" style="fill:rgb(81,82,82);fill-rule:nonzero;"/>
                </g>
            </g>
        </g>
    </g>
    <defs>
        <linearGradient id="_Linear1" x1="0" y1="0" x2="1" y2="0" gradientUnits="userSpaceOnUse" gradientTransform="matrix(1,0,0,-1,0,0.00688887)"><stop offset="0" style="stop-color:rgb(255,196,11);stop-opacity:1"/><stop offset="0.17" style="stop-color:rgb(255,196,11);stop-opacity:1"/><stop offset="0.55" style="stop-color:rgb(247,147,29);stop-opacity:1"/><stop offset="0.86" style="stop-color:rgb(242,99,42);stop-opacity:1"/><stop offset="1" style="stop-color:rgb(242,99,42);stop-opacity:1"/></linearGradient>
        <linearGradient id="_Linear2" x1="0" y1="0" x2="1" y2="0" gradientUnits="userSpaceOnUse" gradientTransform="matrix(0,1,1,0,0.500038,-0.500038)"><stop offset="0" style="stop-color:rgb(255,196,11);stop-opacity:1"/><stop offset="0.17" style="stop-color:rgb(255,196,11);stop-opacity:1"/><stop offset="0.55" style="stop-color:rgb(247,147,29);stop-opacity:1"/><stop offset="0.86" style="stop-color:rgb(242,99,42);stop-opacity:1"/><stop offset="1" style="stop-color:rgb(242,99,42);stop-opacity:1"/></linearGradient>
        <linearGradient id="_Linear3" x1="0" y1="0" x2="1" y2="0" gradientUnits="userSpaceOnUse" gradientTransform="matrix(1,0,0,-1,0,0.0576815)"><stop offset="0" style="stop-color:rgb(255,196,11);stop-opacity:1"/><stop offset="0.17" style="stop-color:rgb(255,196,11);stop-opacity:1"/><stop offset="0.55" style="stop-color:rgb(247,147,29);stop-opacity:1"/><stop offset="0.86" style="stop-color:rgb(242,99,42);stop-opacity:1"/><stop offset="1" style="stop-color:rgb(242,99,42);stop-opacity:1"/></linearGradient>
    </defs>
</svg>
