<svg width="1898" height="366" viewBox="0 0 1898 366" fill="none" xmlns="http://www.w3.org/2000/svg">
<path fill-rule="evenodd" clip-rule="evenodd" d="M193.927 1.68959C173.723 6.03359 156.515 22.2186 151.458 41.6326C145.502 64.4996 158.163 88.6966 182.427 100.816C190.651 104.924 196.945 106.807 206.819 108.114C218.996 109.726 225.404 112.438 231.539 118.573C235.944 122.977 236.899 124.629 237.956 129.669C239.696 137.96 238.029 149.24 232.822 164.426C227.53 179.859 226.787 187.979 229.767 197.79C233.716 210.791 243.407 222.337 256.008 229.054C259.146 230.726 267.917 233.684 275.501 235.628C303.988 242.929 314.927 251.583 314.927 266.819C314.927 274.638 312.755 285.941 309.463 295.254C304.578 309.075 304.974 322.918 310.599 334.913C314.268 342.736 326.356 354.632 334.927 358.854C367.279 374.788 399.989 359.54 408.995 324.325C413.694 305.953 409.291 290.41 395.481 276.614C387.021 268.163 376.568 262.926 360.577 259.127C332.547 252.467 326.073 246.208 327.186 226.84C327.568 220.189 328.694 214.501 331.196 206.591C333.109 200.541 334.979 193.087 335.35 190.026C337.051 175.996 330.682 158.796 319.748 147.894C311.981 140.15 304.685 136.217 290.545 132.154C272.038 126.836 264.062 123.242 258.263 117.608C248.849 108.462 248.012 99.2216 254.502 76.0906C258.165 63.0346 258.46 45.9556 255.201 35.5486C246.906 9.0596 222.464 -4.44741 193.927 1.68959ZM526.254 1.77259C524.543 3.28159 440.715 194.362 439.167 200.283C438.706 202.046 439.566 202.125 456.464 201.865L474.247 201.591L508.309 121.842C538.668 50.7636 542.499 42.3366 543.543 44.3416C545.296 47.7096 577.927 123.754 577.927 124.471C577.927 124.812 566.538 125.091 552.618 125.091C533.902 125.091 526.887 125.417 525.688 126.341C524.151 127.526 516.329 145.194 515.715 148.865C515.448 150.466 518.103 150.627 552.427 151.091L589.427 151.591L599.087 174.091C604.401 186.466 609.442 197.829 610.291 199.341L611.834 202.091H628.88C642.862 202.091 645.927 201.838 645.927 200.685C645.927 199.19 560.591 2.42259 559.442 1.26959C559.07 0.896594 551.915 0.447594 543.541 0.272594C529.972 -0.0104064 528.091 0.153594 526.254 1.77259ZM673.177 0.752594C672.189 1.15159 671.927 22.2766 671.927 101.674V202.091H688.427H704.927V171.091V140.091L751.677 140.083C801.34 140.075 807.831 139.614 816.589 135.471C823.156 132.365 832.13 124.308 835.579 118.422C841.461 108.384 841.927 104.839 841.927 70.0906C841.927 41.7306 841.722 37.6106 840.043 32.2156C837.404 23.7356 833.888 18.1696 827.461 12.2956C820.96 6.35359 813.744 2.70359 805.493 1.18359C799.545 0.0875937 675.824 -0.315406 673.177 0.752594ZM879.045 1.44859C878.221 2.44159 877.986 29.5886 878.172 102.199L878.427 201.591L894.352 201.867C906.422 202.077 910.473 201.835 911.086 200.867C911.532 200.165 911.903 155.244 911.912 101.041C911.923 25.7066 911.644 2.20759 910.727 1.29059C908.919 -0.517406 880.559 -0.375406 879.045 1.44859ZM939.177 0.752594C938.258 1.12359 937.927 5.07759 937.927 15.6796V30.1016L1026.18 29.8456L1114.43 29.5906L1114.71 16.0996C1114.95 4.28659 1114.77 2.45159 1113.27 1.34959C1111.91 0.359594 1093.28 0.107594 1025.99 0.169594C978.928 0.212594 939.865 0.475594 939.177 0.752594ZM1135.11 1.36659C1134.34 2.29859 1141.8 29.2496 1162.8 101.375C1178.61 155.677 1192 200.566 1192.56 201.127C1193.19 201.754 1199.14 202.041 1207.97 201.87L1222.36 201.591L1249.89 139.893C1265.04 105.959 1277.74 78.5086 1278.11 78.8926C1278.49 79.2766 1290.12 106.591 1303.96 139.591C1317.81 172.591 1329.59 200.154 1330.15 200.841C1331.31 202.257 1361.44 202.688 1362.3 201.301C1363.01 200.144 1292.46 33.0446 1290.82 32.0036C1289.05 30.8846 1266.87 30.8396 1265.12 31.9516C1264.4 32.4086 1252.2 59.1066 1238 91.2816C1223.81 123.457 1211.79 150.519 1211.28 151.42C1210.62 152.595 1204.44 131.822 1189.4 77.8996C1177.87 36.5626 1167.84 2.14459 1167.11 1.41559C1165.25 -0.441406 1136.65 -0.485406 1135.11 1.36659ZM1389.11 0.956594C1387.57 1.93459 1351.93 124.019 1351.93 128.325C1351.93 129.927 1355.57 139.868 1360.03 150.415C1369.04 171.725 1369.87 173.482 1370.59 172.76C1370.87 172.484 1382.47 134.083 1396.38 87.4236C1413.97 28.3846 1421.36 2.21059 1420.67 1.34059C1419.52 -0.107406 1391.33 -0.450406 1389.11 0.956594ZM1448.17 0.903594C1447.18 1.54659 1446.97 22.3696 1447.17 101.653L1447.43 201.591L1463.68 201.866L1479.94 202.141L1479.68 101.366L1479.43 0.590594L1464.43 0.341594C1456.18 0.204594 1448.86 0.457594 1448.17 0.903594ZM1563.64 1.13059C1551.8 3.12059 1538.13 12.7976 1532.47 23.1796C1527.78 31.8096 1526.95 36.8956 1526.94 57.2516C1526.93 77.5676 1527.97 83.3666 1533.26 92.3886C1537.29 99.2746 1547.87 108.552 1554.53 111.042C1563.64 114.451 1571.99 115.027 1612.78 115.06C1655.5 115.095 1655.54 115.1 1660.73 121.9C1663.38 125.361 1663.43 125.747 1663.74 142.256C1664.04 158.224 1663.94 159.292 1661.78 163.137C1660.53 165.366 1657.91 168.18 1655.96 169.39C1652.45 171.576 1652.03 171.594 1594.43 172.091L1536.43 172.591V187.091V201.591H1600.48H1664.53L1672.05 197.873C1685.62 191.168 1694.72 178.601 1696.88 163.591C1698.16 154.708 1698.18 132.629 1696.92 123.919C1695.18 111.894 1692.47 106.436 1684.02 97.9926C1678.25 92.2176 1674.99 89.8216 1670.43 88.0046C1664.49 85.6386 1663.98 85.6096 1618.93 85.1026L1573.43 84.5906L1568.77 81.8546C1561.1 77.3476 1559.7 73.2116 1560.1 56.2896C1560.41 43.2346 1560.58 42.2026 1563.09 38.4186C1568.41 30.3886 1566.29 30.6546 1629.43 30.0906L1685.43 29.5906L1685.71 15.6676C1685.92 5.20059 1685.67 1.54359 1684.71 0.932594C1683.05 -0.115406 1569.95 0.0685935 1563.64 1.13059ZM1720.5 1.66159C1719.25 2.91359 1718.93 5.64359 1718.93 15.0806C1718.93 21.5956 1719.2 27.6386 1719.53 28.5086C1720.08 29.9346 1728.81 30.0906 1808.03 30.0906H1895.93V15.6976C1895.93 3.49559 1895.69 1.21259 1894.34 0.697594C1893.47 0.363594 1854.36 0.0905936 1807.42 0.0905936C1731.16 0.0905936 1721.9 0.257594 1720.5 1.66159ZM800.044 33.6046C808.149 39.3026 808.385 40.2396 808.74 68.2506C808.949 84.7526 808.669 94.3356 807.894 97.2146C806.432 102.642 800.691 108.508 795.404 109.976C792.786 110.702 776.647 111.082 748.177 111.085L704.927 111.091V71.2576C704.927 49.3486 705.244 31.1066 705.632 30.7186C706.02 30.3316 726.457 30.1436 751.047 30.3026L795.757 30.5906L800.044 33.6046ZM1009.43 51.3156C1009.12 52.5666 1009 86.8906 1009.15 127.591L1009.43 201.591H1025.93H1042.43V125.591V49.5906L1026.2 49.3156C1010.05 49.0426 1009.97 49.0516 1009.43 51.3156ZM1791.4 50.3156C1791.13 51.0166 1791.03 85.3406 1791.17 126.591L1791.43 201.591L1807.65 201.866C1823.8 202.139 1823.88 202.13 1824.43 199.866C1824.73 198.615 1824.85 164.291 1824.7 123.591L1824.43 49.5906L1808.15 49.3156C1795.69 49.1046 1791.77 49.3386 1791.4 50.3156ZM114.951 128.626C99.8658 132.867 86.8758 145.287 79.6558 162.373C75.6968 171.742 74.7038 186.349 77.3928 195.662C83.3738 216.381 99.8688 230.15 126.427 236.593C141.013 240.132 151.09 244.953 154.903 250.217C160.909 258.508 161.229 270.648 155.924 288.99C154.269 294.709 152.649 303.034 152.324 307.49C149.984 339.514 173.576 365.153 205.313 365.076C219.689 365.041 235.693 358.51 245.548 348.655C255.48 338.724 259.872 327.28 259.91 311.235C259.979 281.955 240.881 263.635 199.208 253.005C185.945 249.622 181.979 247.177 178.129 240.012C175.936 235.93 175.789 234.748 176.217 224.591C176.543 216.872 177.613 209.87 179.804 201.116C189.009 164.343 177.45 139.753 146.427 130.111C137.148 127.227 122.403 126.532 114.951 128.626ZM43.4948 257.19C23.7678 261.223 6.12083 278.438 1.46383 298.194C-6.24217 330.886 17.3888 362.706 50.9128 364.778C72.1858 366.093 92.5128 354.825 102.232 336.33C113.563 314.767 110.124 290.458 93.2718 273.003C83.1238 262.492 71.5488 257.261 56.9268 256.578C52.2518 256.36 46.2078 256.635 43.4948 257.19ZM566.927 275.538V290.984L561.325 288.038C554.19 284.284 547.585 284.106 540.356 287.472C528.3 293.086 522.403 309.087 526.05 326.292C528.882 339.653 536.161 346.089 548.427 346.076C552.992 346.071 561.509 342.407 564.332 339.233C567.009 336.223 567.761 336.542 568.117 340.841C568.418 344.481 568.552 344.6 572.677 344.898L576.927 345.206V302.648V260.091H571.927H566.927V275.538ZM1255.93 302.591V345.091H1260.93H1265.93V302.591V260.091H1260.93H1255.93V302.591ZM1286.1 262.405C1281.75 267.04 1284.9 275.091 1291.07 275.091C1297.06 275.091 1300.11 266.491 1295.61 262.265C1292.61 259.445 1288.83 259.5 1286.1 262.405ZM472.566 261.866C471.902 262.941 440.817 341.181 440.197 343.341C439.766 344.841 440.407 345.091 444.688 345.091C447.508 345.091 450.141 344.538 450.737 343.82C451.318 343.12 453.523 338.058 455.638 332.57L459.483 322.591L478.455 322.324L497.427 322.057L501.302 332.324C503.434 337.971 505.627 343.154 506.175 343.841C506.745 344.556 509.421 345.091 512.427 345.091H517.683L501.055 303.097L484.427 261.102L478.736 261.097C475.606 261.094 472.83 261.44 472.566 261.866ZM830.927 302.994V345.091H836.427H841.927V329.591V314.091H851.838C868.815 314.091 878.488 309.738 883.64 299.779C885.866 295.475 886.318 293.313 886.29 287.091C886.24 275.539 881.827 268.66 871.427 263.919C866.954 261.881 864.555 261.601 848.677 261.268L830.927 260.897V302.994ZM1495.93 303.091V345.091H1501.43H1506.93V303.091V261.091H1501.43H1495.93V303.091ZM730.077 268.841C729.57 269.803 728.847 273.516 728.47 277.091C727.448 286.767 727.37 286.902 722.377 287.651C718.118 288.289 717.927 288.463 717.927 291.705C717.927 295.051 717.98 295.091 722.427 295.091H726.927V315.123C726.927 336.759 727.621 340.534 732.146 343.499C737.386 346.932 746.708 346.727 752.764 343.044L756.037 341.054L753.919 338.079C751.874 335.208 751.701 335.157 748.914 336.598C745.814 338.201 742.108 338.515 740.327 337.326C737.456 335.409 736.927 331.725 736.927 313.657V295.091H745.427H753.927V291.091V287.091H745.427H736.927V277.091V267.091H733.962C732.156 267.091 730.638 267.775 730.077 268.841ZM1601.08 268.841C1600.57 269.803 1599.85 273.516 1599.47 277.091C1598.45 286.767 1598.37 286.902 1593.38 287.651C1589.12 288.289 1588.93 288.463 1588.93 291.705C1588.93 295.051 1588.98 295.091 1593.43 295.091H1597.93V315.123C1597.93 336.759 1598.62 340.534 1603.15 343.499C1608.39 346.932 1617.71 346.727 1623.76 343.044L1627.04 341.054L1624.92 338.079C1622.87 335.208 1622.7 335.157 1619.91 336.598C1616.81 338.201 1613.11 338.515 1611.33 337.326C1608.46 335.409 1607.93 331.725 1607.93 313.657V295.091H1616.43H1624.93V291.091V287.091H1616.43H1607.93V277.091V267.091H1604.96C1603.16 267.091 1601.64 267.775 1601.08 268.841ZM1871.08 268.841C1870.57 269.803 1869.85 273.516 1869.47 277.091C1868.45 286.767 1868.37 286.902 1863.38 287.651C1859.12 288.289 1858.93 288.463 1858.93 291.705C1858.93 295.051 1858.98 295.091 1863.43 295.091H1867.93V315.123C1867.93 336.759 1868.62 340.534 1873.15 343.499C1878.39 346.932 1887.71 346.727 1893.76 343.044L1897.04 341.054L1894.92 338.079C1892.87 335.208 1892.7 335.157 1889.91 336.598C1886.81 338.201 1883.11 338.515 1881.33 337.326C1878.46 335.409 1877.93 331.725 1877.93 313.657V295.091H1886.43H1894.93V291.091V287.091H1886.43H1877.93V277.091V267.091H1874.96C1873.16 267.091 1871.64 267.775 1871.08 268.841ZM865.957 272.341C872.14 275.464 874.927 279.969 874.927 286.838C874.927 293.853 872.623 298.602 867.609 301.92C864.02 304.295 862.478 304.609 852.766 304.941L841.927 305.312V287.702V270.091H851.715C859.879 270.091 862.242 270.464 865.957 272.341ZM486.86 295.014C490.74 305.146 493.756 313.596 493.561 313.79C493.366 313.985 486.422 314.02 478.129 313.868L463.051 313.591L470.025 295.622C473.861 285.738 477.281 276.528 477.626 275.154C478.207 272.837 478.31 272.799 479.029 274.623C479.455 275.705 482.979 284.881 486.86 295.014ZM606.248 286.893C600.373 288.983 593.944 293.052 593.934 294.686C593.925 296.038 597.197 299.091 598.654 299.091C599.243 299.091 602.29 297.741 605.427 296.091C613.097 292.056 618.69 292.014 623.105 295.959C625.97 298.519 626.36 299.524 626.728 305.303L627.14 311.78L619.712 312.407C615.627 312.753 609.545 313.888 606.197 314.93C595.351 318.305 590.924 323.05 590.931 331.291C590.943 345.893 610.387 351.063 624.058 340.099C627.908 337.012 628.927 337.108 628.927 340.558C628.927 343.59 630.815 345.091 634.627 345.091H637.927V326.227C637.927 305.183 637.013 298.331 633.499 293.021C628.822 285.953 616.609 283.207 606.248 286.893ZM678.064 286.46C676.214 287.129 672.925 289.168 670.754 290.991C668.583 292.813 666.685 294.144 666.537 293.948C666.388 293.752 665.838 292.016 665.315 290.091C664.439 286.872 664.024 286.566 660.145 286.284L655.927 285.976V325.534V365.091H661.427H666.927V352.621V340.151L670.49 342.569C680.023 349.039 695.552 346.02 702.206 336.404C706.58 330.083 708.105 324.447 708.105 314.591C708.106 299.957 703.311 290.646 693.709 286.642C689.347 284.822 682.8 284.746 678.064 286.46ZM911.657 286.637C904.964 288.779 898.762 295.082 895.96 302.591C894.085 307.615 893.797 309.974 894.192 317.091C894.907 329.997 899.644 338.212 909.374 343.421C912.672 345.187 915.104 345.591 922.427 345.591C930.239 345.591 932.172 345.225 937.074 342.818C943.577 339.624 945.218 338.012 944.327 335.69C943.001 332.237 940.348 331.968 934.994 334.746C921.528 341.732 909.443 337.303 905.47 323.924C902.657 314.453 901.142 315.168 924.677 314.861L945.427 314.591L945.348 308.091C945.231 298.467 941.378 291.924 933.427 287.844C928.206 285.165 918.02 284.6 911.657 286.637ZM981.427 286.508C978.335 287.889 974.03 292.076 972.091 295.591C971.097 297.393 970.985 297.276 970.957 294.406C970.941 292.654 970.488 290.067 969.952 288.656C969.128 286.489 968.352 286.091 964.952 286.091H960.927V315.591V345.091H966.427H971.927V326.051C971.927 308.859 972.125 306.623 973.967 303.012C976.824 297.413 981.199 294.874 987.115 295.383C992.909 295.881 993.471 295.521 994.209 290.842C994.685 287.825 994.436 286.898 992.93 286.092C990.349 284.711 985.021 284.904 981.427 286.508ZM1015.5 286.516C1013.34 287.319 1009.99 289.562 1008.05 291.501C1004.91 294.645 1004.48 295.703 1004.13 301.308C1003.79 306.627 1004.07 308.017 1005.92 310.369C1008.5 313.634 1012.91 315.988 1022.12 319.017C1030.75 321.853 1033.93 324.332 1033.93 328.229C1033.93 332.278 1032.44 334.775 1028.95 336.581C1024.52 338.871 1017.95 338.475 1012.52 335.591C1006.65 332.467 1005.56 332.47 1003.5 335.619C1001.41 338.81 1001.89 339.531 1008.23 342.744C1026.15 351.826 1046.33 341.315 1043.58 324.335C1042.65 318.606 1038.53 315.369 1026.9 311.243C1014.73 306.92 1011.8 304.222 1013.87 299.225C1016.43 293.044 1026.32 291.448 1035.35 295.757C1039.12 297.552 1039.14 297.55 1041.04 295.195C1042.56 293.318 1042.71 292.535 1041.76 291.389C1037.54 286.302 1023.22 283.646 1015.5 286.516ZM1074.29 286.18C1072.57 286.68 1068.98 288.552 1066.31 290.34C1053.72 298.792 1050.94 322.151 1060.89 335.883C1067.06 344.4 1080.45 348.103 1092.5 344.624C1100.27 342.378 1107.09 335.653 1109.37 327.972C1111.37 321.236 1111.36 309.918 1109.35 303.15C1107.19 295.86 1100.16 288.831 1092.87 286.666C1087.09 284.952 1079.24 284.746 1074.29 286.18ZM1148.57 286.554C1146.45 287.31 1143.03 289.28 1140.98 290.931L1137.24 293.933L1136.33 290.262C1135.48 286.826 1135.15 286.571 1131.18 286.284L1126.93 285.976V315.534V345.091H1132.43H1137.93V323.278V301.465L1140.68 298.831C1146.3 293.445 1154.36 291.71 1160.05 294.657C1165.27 297.353 1165.93 300.65 1165.93 324.059V345.091H1171.43H1176.93V325.64C1176.93 304.782 1176.04 298.063 1172.59 292.878C1168.12 286.141 1157.54 283.356 1148.57 286.554ZM1205.25 286.893C1199.37 288.983 1192.94 293.052 1192.93 294.686C1192.92 296.038 1196.2 299.091 1197.65 299.091C1198.24 299.091 1201.29 297.741 1204.43 296.091C1212.1 292.056 1217.69 292.014 1222.1 295.959C1224.97 298.519 1225.36 299.524 1225.73 305.303L1226.14 311.78L1218.71 312.407C1214.63 312.753 1208.54 313.888 1205.2 314.93C1194.35 318.305 1189.92 323.05 1189.93 331.291C1189.94 345.893 1209.39 351.063 1223.06 340.099C1226.91 337.012 1227.93 337.108 1227.93 340.558C1227.93 343.59 1229.81 345.091 1233.63 345.091H1236.93V326.227C1236.93 305.183 1236.01 298.331 1232.5 293.021C1227.82 285.953 1215.61 283.207 1205.25 286.893ZM1324.5 286.516C1322.34 287.319 1318.99 289.562 1317.05 291.501C1313.91 294.645 1313.48 295.703 1313.13 301.308C1312.79 306.627 1313.07 308.017 1314.92 310.369C1317.5 313.634 1321.91 315.988 1331.12 319.017C1339.75 321.853 1342.93 324.332 1342.93 328.229C1342.93 332.278 1341.44 334.775 1337.95 336.581C1333.52 338.871 1326.95 338.475 1321.52 335.591C1315.65 332.467 1314.56 332.47 1312.5 335.619C1310.41 338.81 1310.89 339.531 1317.23 342.744C1335.15 351.826 1355.33 341.315 1352.58 324.335C1351.65 318.606 1347.53 315.369 1335.9 311.243C1323.73 306.92 1320.8 304.222 1322.87 299.225C1325.43 293.044 1335.32 291.448 1344.35 295.757C1348.12 297.552 1348.14 297.55 1350.04 295.195C1351.56 293.318 1351.71 292.535 1350.76 291.389C1346.54 286.302 1332.22 283.646 1324.5 286.516ZM1382.66 286.637C1375.96 288.779 1369.76 295.082 1366.96 302.591C1365.08 307.615 1364.8 309.974 1365.19 317.091C1365.91 329.997 1370.64 338.212 1380.37 343.421C1383.67 345.187 1386.1 345.591 1393.43 345.591C1401.24 345.591 1403.17 345.225 1408.07 342.818C1414.58 339.624 1416.22 338.012 1415.33 335.69C1414 332.237 1411.35 331.968 1405.99 334.746C1392.53 341.732 1380.44 337.303 1376.47 323.924C1373.66 314.453 1372.14 315.168 1395.68 314.861L1416.43 314.591L1416.35 308.091C1416.23 298.467 1412.38 291.924 1404.43 287.844C1399.21 285.165 1389.02 284.6 1382.66 286.637ZM1548.57 286.554C1546.45 287.31 1543.03 289.28 1540.98 290.931L1537.24 293.933L1536.33 290.262C1535.48 286.826 1535.15 286.571 1531.18 286.284L1526.93 285.976V315.534V345.091H1532.43H1537.93V323.278V301.465L1540.68 298.831C1546.3 293.445 1554.36 291.71 1560.05 294.657C1565.27 297.353 1565.93 300.65 1565.93 324.059V345.091H1571.43H1576.93V325.64C1576.93 304.782 1576.04 298.063 1572.59 292.878C1568.12 286.141 1557.54 283.356 1548.57 286.554ZM1651.66 286.637C1644.96 288.779 1638.76 295.082 1635.96 302.591C1634.08 307.615 1633.8 309.974 1634.19 317.091C1634.91 329.997 1639.64 338.212 1649.37 343.421C1652.67 345.187 1655.1 345.591 1662.43 345.591C1670.24 345.591 1672.17 345.225 1677.07 342.818C1683.58 339.624 1685.22 338.012 1684.33 335.69C1683 332.237 1680.35 331.968 1674.99 334.746C1661.53 341.732 1649.44 337.303 1645.47 323.924C1642.66 314.453 1641.14 315.168 1664.68 314.861L1685.43 314.591L1685.35 308.091C1685.23 298.467 1681.38 291.924 1673.43 287.844C1668.21 285.165 1658.02 284.6 1651.66 286.637ZM1721.43 286.508C1718.33 287.889 1714.03 292.076 1712.09 295.591C1711.1 297.393 1710.98 297.276 1710.96 294.406C1710.94 292.654 1710.49 290.067 1709.95 288.656C1709.13 286.489 1708.35 286.091 1704.95 286.091H1700.93V315.591V345.091H1706.43H1711.93V326.051C1711.93 308.859 1712.12 306.623 1713.97 303.012C1716.82 297.413 1721.2 294.874 1727.11 295.383C1732.91 295.881 1733.47 295.521 1734.21 290.842C1734.68 287.825 1734.44 286.898 1732.93 286.092C1730.35 284.711 1725.02 284.904 1721.43 286.508ZM1756.25 286.893C1750.37 288.983 1743.94 293.052 1743.93 294.686C1743.92 296.038 1747.2 299.091 1748.65 299.091C1749.24 299.091 1752.29 297.741 1755.43 296.091C1763.1 292.056 1768.69 292.014 1773.1 295.959C1775.97 298.519 1776.36 299.524 1776.73 305.303L1777.14 311.78L1769.71 312.407C1765.63 312.753 1759.54 313.888 1756.2 314.93C1745.35 318.305 1740.92 323.05 1740.93 331.291C1740.94 345.893 1760.39 351.063 1774.06 340.099C1777.91 337.012 1778.93 337.108 1778.93 340.558C1778.93 343.59 1780.81 345.091 1784.63 345.091H1787.93V326.227C1787.93 305.183 1787.01 298.331 1783.5 293.021C1778.82 285.953 1766.61 283.207 1756.25 286.893ZM1820.93 286.568C1814.57 288.627 1809.51 293.206 1806.24 299.861C1803.72 304.983 1803.43 306.651 1803.43 315.591C1803.43 323.917 1803.81 326.428 1805.73 330.591C1810.63 341.229 1817.46 345.548 1829.43 345.574C1836.2 345.588 1838.31 345.159 1843.18 342.765C1850.49 339.175 1851.7 337.167 1848.41 334.079L1845.98 331.791L1841.72 334.61C1832.28 340.853 1821.21 338.318 1816.49 328.834C1814.37 324.594 1813.93 322.284 1813.93 315.591C1813.93 308.898 1814.37 306.588 1816.49 302.348C1820.93 293.439 1830.38 290.759 1840.59 295.512L1845.74 297.914L1847.98 295.532C1849.89 293.506 1850.02 292.91 1848.89 291.547C1844.45 286.192 1830.02 283.623 1820.93 286.568ZM1285.93 315.591V345.091H1290.93H1295.93V315.591V286.091H1290.93H1285.93V315.591ZM558.612 294.155C560.16 294.74 562.664 296.399 564.177 297.842C566.924 300.463 566.927 300.479 566.927 314.643C566.927 330.832 566.378 332.242 558.607 336.004C550.381 339.986 542.218 337.789 538.496 330.591C536.789 327.292 536.427 324.751 536.427 316.091C536.427 306.889 536.719 305.082 538.786 301.476C542.838 294.404 551.15 291.335 558.612 294.155ZM692.496 297.318C700.497 306.049 698.947 328.763 689.904 335.315C684.517 339.217 675.13 338.816 669.956 334.462L666.927 331.913V316.689V301.465L669.677 298.897C674.538 294.357 677.98 293.026 683.842 293.42C688.539 293.735 689.686 294.251 692.496 297.318ZM928.943 294.915C931.107 296.048 933.279 298.401 934.677 301.127C938.838 309.242 939.099 309.091 920.927 309.091C903.529 309.091 903.8 309.194 905.994 303.406C909.339 294.578 920.447 290.468 928.943 294.915ZM1092.72 295.729C1103.05 303.227 1102.97 328.001 1092.6 335.539C1088.46 338.552 1077.63 338.452 1073.3 335.361C1068.03 331.601 1066.43 326.992 1066.43 315.591C1066.43 303.139 1068.26 298.779 1074.98 295.276C1080.41 292.445 1088.48 292.652 1092.72 295.729ZM1399.94 294.915C1402.11 296.048 1404.28 298.401 1405.68 301.127C1409.84 309.242 1410.1 309.091 1391.93 309.091C1374.53 309.091 1374.8 309.194 1376.99 303.406C1380.34 294.578 1391.45 290.468 1399.94 294.915ZM1668.94 294.915C1671.11 296.048 1673.28 298.401 1674.68 301.127C1678.84 309.242 1679.1 309.091 1660.93 309.091C1643.53 309.091 1643.8 309.194 1645.99 303.406C1649.34 294.578 1660.45 290.468 1668.94 294.915ZM626.725 325.299C626.435 331.337 626.312 331.587 622.212 334.464C617.321 337.895 609.064 339.042 604.944 336.862C599.937 334.214 599.735 326.574 604.587 323.394C607.669 321.374 616.613 319.294 622.725 319.175L627.022 319.091L626.725 325.299ZM1225.72 325.299C1225.43 331.337 1225.31 331.587 1221.21 334.464C1216.32 337.895 1208.06 339.042 1203.94 336.862C1198.94 334.214 1198.73 326.574 1203.59 323.394C1206.67 321.374 1215.61 319.294 1221.72 319.175L1226.02 319.091L1225.72 325.299ZM1776.72 325.299C1776.43 331.337 1776.31 331.587 1772.21 334.464C1767.32 337.895 1759.06 339.042 1754.94 336.862C1749.94 334.214 1749.73 326.574 1754.59 323.394C1757.67 321.374 1766.61 319.294 1772.72 319.175L1777.02 319.091L1776.72 325.299ZM767 333.726C765.86 335.175 764.927 337.139 764.927 338.091C764.927 340.648 768.781 345.091 771 345.091C773.675 345.091 773.444 346.122 769.427 352.091C765.488 357.945 765.371 358.385 767.324 360.005C768.439 360.931 769.345 360.407 771.817 357.409C778.953 348.751 781.265 337.347 776.738 333.13C773.65 330.253 769.533 330.505 767 333.726ZM1432 333.726C1430.86 335.175 1429.93 337.139 1429.93 338.091C1429.93 340.648 1433.78 345.091 1436 345.091C1438.67 345.091 1438.44 346.122 1434.43 352.091C1430.49 357.945 1430.37 358.385 1432.32 360.005C1433.44 360.931 1434.34 360.407 1436.82 357.409C1443.95 348.751 1446.26 337.347 1441.74 333.13C1438.65 330.253 1434.53 330.505 1432 333.726Z" fill="#FFFFFD"/>
</svg>
