<svg width="967" height="186" viewBox="0 0 967 186" fill="none" xmlns="http://www.w3.org/2000/svg">
<path d="M91.8122 3.19248C90.482 3.85758 89.2848 4.65569 88.2207 5.45381C71.9922 17.4256 72.5243 37.9107 89.2848 49.2174C92.0782 51.0797 94.8717 52.4099 97.266 53.341C99.7934 54.2722 102.454 54.6712 105.247 54.9373C113.627 55.7354 116.687 59.0609 116.687 59.0609C126.93 64.9138 118.017 85.5319 118.017 85.5319C114.426 94.1782 116.288 101.361 119.746 106.815C124.003 113.599 131.186 118.122 139.034 119.718C154.465 122.778 158.455 128.896 158.455 128.896C162.978 133.552 158.987 147.253 157.258 151.643C156.992 152.574 156.593 153.505 156.46 154.436C153.667 168.935 161.648 177.183 168.565 181.572C174.551 185.43 182 186.893 189.05 185.43C207.939 181.439 209.269 160.156 209.269 160.156C209.934 152.973 207.141 147.253 203.549 142.864C198.76 137.144 191.843 133.552 184.394 132.089C175.216 130.36 171.358 127.566 171.358 127.566C161.648 122.245 169.23 103.889 169.23 103.889C169.496 103.224 169.629 102.558 169.895 102.026C174.285 87.1281 165.239 71.8308 150.208 67.8402C142.759 65.978 137.97 63.9827 134.778 62.3864C130.521 60.3911 127.861 56.2675 127.462 51.6118V51.3457C127.329 47.7542 127.994 44.1627 129.191 40.8372C130.92 35.5164 131.319 30.1956 131.319 25.9389C131.186 19.1549 128.792 12.5039 124.003 7.58214C118.416 1.72925 111.765 2.95013e-06 106.045 2.95013e-06C98.0641 2.95013e-06 91.8122 3.19248 91.8122 3.19248Z" fill="url(#paint0_linear_1_35)"/>
<path d="M55.5015 158.211C55.5015 173.538 43.0771 185.962 27.7508 185.962C12.4244 185.962 0 173.538 0 158.211C0 142.885 12.4244 130.461 27.7508 130.461C43.0771 130.461 55.5015 142.885 55.5015 158.211Z" fill="url(#paint1_linear_1_35)"/>
<path d="M55.9759 66.3468C48.454 69.7317 44.0349 75.4671 41.7783 80.1683C41.2142 81.4846 40.462 82.7069 39.9919 84.1173C34.9146 99.2551 44.317 109.222 44.317 109.222C51.9329 117.966 61.8053 119.846 61.8053 119.846C69.7033 121.445 74.4045 123.701 74.4045 123.701C84.7471 128.496 81.0802 142.318 79.5758 146.737C79.1057 148.335 78.5415 149.934 78.2595 151.532C75.3447 165.73 82.1144 174.38 82.1144 174.38C94.3375 191.398 112.86 184.629 112.86 184.629C128.092 180.303 131.101 168.174 131.101 168.174C137.494 145.233 120.382 136.394 120.382 136.394C111.544 130.659 99.1327 128.214 99.1327 128.214H98.9447C93.9614 127.556 90.1065 123.513 89.6363 118.53C88.8841 111.29 91.6108 102.734 91.6108 102.734C99.0387 76.5014 80.7041 68.6034 80.7041 68.6034C74.3105 65.5946 68.8571 64.6544 64.8141 64.6544C59.1727 64.6544 55.9759 66.3468 55.9759 66.3468Z" fill="url(#paint2_linear_1_35)"/>
<path d="M294.72 105.574L276.432 63.0014L242.148 143.146C241.765 144.288 240.954 144.86 239.719 144.86H224.861C223.717 144.86 223.385 144.288 223.861 143.146L267.146 43.5725C267.718 42.5242 268.578 42 269.719 42H283.289C284.526 42 285.338 42.5242 285.721 43.5725L329.006 143.146C329.48 144.288 329.147 144.86 328.006 144.86H313.148C311.911 144.86 311.099 144.288 310.719 143.146L300.576 119.575C300.385 119.098 299.956 118.859 299.291 118.859H263.86C262.719 118.859 262.338 118.287 262.719 117.145L266.862 107.144C267.242 106.098 268.051 105.574 269.291 105.574H294.72Z" fill="#F7931D"/>
<path d="M356.399 100.494C356.399 99.3502 356.822 98.3338 358.062 98.3338L402.284 98.2886C405.049 98.2886 407.358 97.36 409.213 95.5027C411.073 93.6429 411.999 91.336 411.999 88.5741V67.0032C411.999 64.2387 411.073 61.9292 409.213 60.0746C407.358 58.2147 405.049 57.2861 402.284 57.2861H359.632C359.44 57.2861 359.283 57.4431 359.283 58.6697V144.038C359.283 144.243 358.714 144.86 357.57 144.86H343.489C342.747 144.86 342.143 144.259 342.143 143.514V43.7162C342.143 42.5721 342.76 42 343.997 42H405.998C413.246 42 419.241 44.8337 423.985 50.4985C427.505 54.7052 429.142 60.189 429.142 65.6755V89.3298C429.142 94.8136 427.505 100.3 423.985 104.507C419.241 110.169 413.246 113.003 405.998 113.003H369.918C369.173 113.003 359.023 113.04 357.86 113.04L356.399 100.494Z" fill="#F7931D"/>
<path d="M448.294 43.7162C448.294 42.5721 448.911 42 450.151 42H464.232C464.897 42 465.434 42.5401 465.434 43.2053V143.005C465.434 144.243 464.865 144.86 463.721 144.86H449.64C448.898 144.86 448.294 144.256 448.294 143.514V43.7162Z" fill="#F7931D"/>
<path d="M530.089 66.5722C530.754 66.5722 531.294 67.1123 531.294 67.7775V143.003C531.294 144.24 530.722 144.86 529.581 144.86H515.5C514.755 144.86 514.151 144.256 514.151 143.508V68.2857C514.151 67.1443 514.768 66.5722 516.008 66.5722H530.089ZM479.069 57.2835C478.324 57.2835 477.72 56.6795 477.72 55.9344V43.7135C477.72 42.5721 478.342 42 479.579 42H566.009C567.244 42 567.866 42.5721 567.866 43.7135V55.9371C567.866 56.6821 567.262 57.2835 566.517 57.2835H479.069Z" fill="#515252"/>
<path d="M688.918 109.145C688.46 108.192 688.373 107.096 688.644 105.858L706.671 43.7162C706.945 42.5721 707.671 42 708.855 42H722.784C723.966 42 724.375 42.5721 724.014 43.7162L698.614 129.002C698.34 129.67 698.156 130 698.068 130C697.885 130 697.659 129.718 697.387 129.145L688.918 109.145ZM679.358 144.86C678.176 144.86 677.402 144.336 677.038 143.287L650.954 81.1426L623.234 143.287C622.777 144.336 621.957 144.86 620.778 144.86H609.034C607.85 144.86 607.121 144.288 606.847 143.146L577.897 43.7162C577.626 42.5721 578.033 42 579.127 42H593.194C594.373 42 595.105 42.5721 595.379 43.7162L616.681 120.003L643.445 59.287C643.994 58.2387 644.81 57.7145 645.904 57.7145H656.145C657.327 57.7145 658.146 58.2387 658.604 59.287L693.971 143.287C694.335 144.336 693.971 144.86 692.88 144.86H679.358Z" fill="#515252"/>
<path d="M737.009 43.7162C737.009 42.5721 737.626 42 738.866 42H752.947C753.612 42 754.149 42.5401 754.149 43.2053V143.005C754.149 144.243 753.58 144.86 752.436 144.86H738.355C737.613 144.86 737.009 144.256 737.009 143.514V43.7162Z" fill="#515252"/>
<path d="M782.295 130.779C782.295 130.114 782.835 129.574 783.5 129.574H838.661C843.746 129.574 847.867 125.452 847.867 120.37V109.352C847.867 104.267 843.746 100.146 838.661 100.146H801.253C795.729 100.146 790.214 98.4216 786.068 94.771C780.504 89.8699 777.724 83.7581 777.724 76.4303V65.1434C777.724 58.5713 779.962 53.0741 784.437 48.6439C788.912 44.2138 794.388 42 800.867 42H857.661C858.329 42 858.869 42.5401 858.869 43.208V55.4289C858.869 56.6688 858.297 57.2861 857.153 57.2861H803.786C798.701 57.2861 794.58 61.4076 794.58 66.4924V75.6534C794.58 80.7381 798.701 84.8597 803.786 84.8597H841.582C848.154 84.8597 853.652 87.0708 858.082 91.5009C862.512 95.9311 864.726 101.431 864.726 108.003V121.717C864.726 128.196 862.512 133.669 858.082 138.144C853.652 142.625 848.154 144.86 841.582 144.86H784.009C782.867 144.86 782.295 144.24 782.295 143.003V130.779Z" fill="#515252"/>
<path d="M928.235 66.5722C928.901 66.5722 929.441 67.1123 929.441 67.7775V143.003C929.441 144.24 928.869 144.86 927.727 144.86H913.646C912.901 144.86 912.297 144.256 912.297 143.508V68.2857C912.297 67.1443 912.915 66.5722 914.155 66.5722H928.235ZM877.215 57.2835C876.47 57.2835 875.866 56.6795 875.866 55.9344V43.7135C875.866 42.5721 876.489 42 877.726 42H964.156C965.39 42 966.013 42.5721 966.013 43.7135V55.9371C966.013 56.6821 965.409 57.2835 964.664 57.2835H877.215Z" fill="#515252"/>
<defs>
<linearGradient id="paint0_linear_1_35" x1="76.3819" y1="92.9958" x2="209.402" y2="92.9958" gradientUnits="userSpaceOnUse">
<stop stop-color="#FFC40B"/>
<stop offset="0.17" stop-color="#FFC40B"/>
<stop offset="0.55" stop-color="#F7931D"/>
<stop offset="0.86" stop-color="#F2632A"/>
<stop offset="1" stop-color="#F2632A"/>
</linearGradient>
<linearGradient id="paint1_linear_1_35" x1="-0.00210906" y1="158.213" x2="55.4994" y2="158.213" gradientUnits="userSpaceOnUse">
<stop stop-color="#FFC40B"/>
<stop offset="0.17" stop-color="#FFC40B"/>
<stop offset="0.55" stop-color="#F7931D"/>
<stop offset="0.86" stop-color="#F2632A"/>
<stop offset="1" stop-color="#F2632A"/>
</linearGradient>
<linearGradient id="paint2_linear_1_35" x1="38.4875" y1="125.33" x2="132.511" y2="125.33" gradientUnits="userSpaceOnUse">
<stop stop-color="#FFC40B"/>
<stop offset="0.17" stop-color="#FFC40B"/>
<stop offset="0.55" stop-color="#F7931D"/>
<stop offset="0.86" stop-color="#F2632A"/>
<stop offset="1" stop-color="#F2632A"/>
</linearGradient>
</defs>
</svg>
