<svg width="960" height="984" viewBox="0 0 960 984" fill="none" xmlns="http://www.w3.org/2000/svg">
<path d="M480.5 15C494.316 15 505.5 26.184 505.5 40V57.7H455.5V40C455.5 26.1843 466.684 15 480.5 15Z" fill="#FAF9F9" stroke="black" stroke-width="30"/>
<path d="M899.1 144.6C923.916 144.6 944.1 164.784 944.1 189.6V632.1C944.1 656.917 923.916 677.1 899.1 677.1H60.9C36.0841 677.1 15.9 656.917 15.9 632.1V189.6C15.9 164.784 36.0843 144.6 60.9 144.6H899.1Z" fill="#FAF9F9" stroke="black" stroke-width="30"/>
<path d="M836.942 767.038L837.004 767.044L837.066 767.049C849.943 768.112 860 778.862 860 792C860 805.789 848.743 817 835.199 817H752.299H727.18L739.093 839.114L789.164 932.058C789.168 932.065 789.172 932.072 789.176 932.079C795.701 944.343 791.152 959.443 778.988 965.993L778.93 966.025L778.871 966.057C775.234 968.057 771.247 969 767.2 969C758.155 969 749.574 964.202 745.113 955.9L745.109 955.892L674.609 824.892L670.362 817H661.4H520.6H505.6V832V944C505.6 957.816 494.416 969 480.6 969C466.784 969 455.6 957.816 455.6 944V832V817H440.6H298.8H289.838L285.591 824.892L215.128 955.824C215.123 955.833 215.117 955.843 215.112 955.853C210.529 964.239 201.897 969 193 969C189.111 969 185.04 968.028 181.184 965.978C168.976 959.386 164.452 944.285 171.007 932.111L221.106 839.114L233.019 817H207.9H125C111.184 817 100 805.816 100 792C100 779.048 109.888 768.37 122.479 767.091C123.072 767.078 123.596 767.054 123.952 767.038L124.031 767.035C124.638 767.007 124.848 767 125 767H250.9H341.8H440.5H520.5H618.2H709H835C836.213 767 836.632 767.01 836.942 767.038Z" fill="#FAF9F9" stroke="black" stroke-width="30"/>
</svg>
