<svg width="431" height="243" viewBox="0 0 431 243" fill="none" xmlns="http://www.w3.org/2000/svg">
    <path d="M0.426636 203.479C0.426636 203.479 131.917 196.218 203.904 141.321C286.569 78.2835 414.179 2.34442 425.529 79.461C436.878 156.578 425.529 205.86 425.529 205.86L0.426636 203.479Z" fill="#FFF0F0"/>
    <g opacity="0.62">
        <path opacity="0.62" d="M261.529 77.8098C261.529 77.5374 261.308 77.3166 261.035 77.3166C260.763 77.3166 260.542 77.5374 260.542 77.8098V78.7369C260.542 79.0093 260.763 79.2301 261.035 79.2301C261.308 79.2301 261.529 79.0093 261.529 78.7369V77.8098Z" fill="#FFD1CC"/>
        <path opacity="0.62" d="M261.529 80.039C261.529 79.7667 261.308 79.5459 261.035 79.5459C260.763 79.5459 260.542 79.7667 260.542 80.039V80.9661C260.542 81.2385 260.763 81.4592 261.035 81.4592C261.308 81.4592 261.529 81.2385 261.529 80.9661V80.039Z" fill="#FFD1CC"/>
        <path opacity="0.62" d="M261.529 82.2381C261.529 81.9658 261.308 81.745 261.035 81.745C260.763 81.745 260.542 81.9658 260.542 82.2381V83.1652C260.542 83.4375 260.763 83.6583 261.035 83.6583C261.308 83.6583 261.529 83.4375 261.529 83.1652V82.2381Z" fill="#FFD1CC"/>
        <path opacity="0.62" d="M261.529 84.4372C261.529 84.1648 261.308 83.944 261.035 83.944C260.763 83.944 260.542 84.1648 260.542 84.4372V85.3644C260.542 85.6367 260.763 85.8575 261.035 85.8575C261.308 85.8575 261.529 85.6367 261.529 85.3644V84.4372Z" fill="#FFD1CC"/>
        <path opacity="0.62" d="M261.529 86.6363C261.529 86.3639 261.308 86.1432 261.035 86.1432C260.763 86.1432 260.542 86.3639 260.542 86.6363V87.5634C260.542 87.8358 260.763 88.0565 261.035 88.0565C261.308 88.0565 261.529 87.8358 261.529 87.5634V86.6363Z" fill="#FFD1CC"/>
        <path opacity="0.62" d="M261.529 88.8354C261.529 88.563 261.308 88.3423 261.035 88.3423C260.763 88.3423 260.542 88.563 260.542 88.8354V89.7626C260.542 90.0349 260.763 90.2557 261.035 90.2557C261.308 90.2557 261.529 90.0349 261.529 89.7626V88.8354Z" fill="#FFD1CC"/>
        <path opacity="0.62" d="M261.529 91.0347C261.529 90.7623 261.308 90.5415 261.035 90.5415C260.763 90.5415 260.542 90.7623 260.542 91.0347V91.9619C260.542 92.2342 260.763 92.455 261.035 92.455C261.308 92.455 261.529 92.2342 261.529 91.9619V91.0347Z" fill="#FFD1CC"/>
        <path opacity="0.62" d="M261.529 93.2328C261.529 92.9604 261.308 92.7397 261.035 92.7397C260.763 92.7397 260.542 92.9604 260.542 93.2328V94.1599C260.542 94.4322 260.763 94.653 261.035 94.653C261.308 94.653 261.529 94.4322 261.529 94.1599V93.2328Z" fill="#FFD1CC"/>
        <path opacity="0.62" fill-rule="evenodd" clip-rule="evenodd" d="M261.364 94.0578C261.462 94.0638 261.556 94.0986 261.635 94.1578C261.713 94.2171 261.772 94.2981 261.804 94.3908L263.011 98.1993C263.028 98.2363 263.035 98.277 263.031 98.3175C263.028 98.358 263.014 98.3969 262.991 98.4305C262.968 98.4641 262.937 98.4912 262.9 98.5092C262.864 98.5272 262.823 98.5356 262.783 98.5334H259.288C259.247 98.5356 259.207 98.5272 259.17 98.5092C259.134 98.4912 259.102 98.4641 259.08 98.4305C259.057 98.3969 259.043 98.358 259.039 98.3175C259.036 98.277 259.043 98.2363 259.06 98.1993L260.265 94.3908C260.298 94.2981 260.357 94.2171 260.436 94.1579C260.514 94.0986 260.608 94.0638 260.706 94.0578H261.364Z" fill="#FFECEB"/>
        <path opacity="0.62" d="M271.666 79.6438H270.364C270.052 79.6438 269.8 79.8963 269.8 80.2078V198.536C269.8 198.848 270.052 199.1 270.364 199.1H271.666C271.978 199.1 272.231 198.848 272.231 198.536V80.2078C272.231 79.8963 271.978 79.6438 271.666 79.6438Z" fill="#FFD1CC"/>
        <path opacity="0.62" d="M272.812 69.386H269.22C268.36 69.386 267.664 70.082 267.664 70.9405V80.9866C267.664 81.8451 268.36 82.5411 269.22 82.5411H272.812C273.671 82.5411 274.368 81.8451 274.368 80.9866V70.9405C274.368 70.082 273.671 69.386 272.812 69.386Z" fill="#FFD1CC"/>
        <path opacity="0.62" d="M272.812 194.078H269.22C268.36 194.078 267.664 194.774 267.664 195.632V202.569C267.664 203.428 268.36 204.124 269.22 204.124H272.812C273.671 204.124 274.368 203.428 274.368 202.569V195.632C274.368 194.774 273.671 194.078 272.812 194.078Z" fill="#FFD1CC"/>
        <path opacity="0.62" fill-rule="evenodd" clip-rule="evenodd" d="M277.846 204.9H264.189C263.834 204.899 263.494 204.758 263.243 204.507C262.992 204.256 262.85 203.916 262.849 203.562C262.851 203.207 262.992 202.867 263.243 202.617C263.494 202.366 263.834 202.225 264.189 202.224H277.846C278.201 202.225 278.541 202.366 278.793 202.617C279.044 202.867 279.185 203.207 279.186 203.562C279.185 203.916 279.044 204.256 278.793 204.507C278.542 204.758 278.202 204.899 277.846 204.9Z" fill="#FFD1CC"/>
        <path opacity="0.62" fill-rule="evenodd" clip-rule="evenodd" d="M271.016 54.2114H277.334C278.301 54.2114 279.344 55.0021 279.651 55.97L286.01 76.0566C286.316 77.0234 285.775 77.8152 284.806 77.8152H257.224C256.256 77.8152 255.719 77.0245 256.021 76.0566L262.386 55.9668C262.692 54.9999 263.736 54.2082 264.704 54.2082L271.016 54.2114Z" fill="#FFECEB"/>
        <path opacity="0.62" fill-rule="evenodd" clip-rule="evenodd" d="M283.225 67.2643L283.951 69.5548H258.084L258.81 67.2643H283.225ZM284.391 70.9417L285.843 75.5237H256.189L257.64 70.9417H284.391Z" fill="#FFD1CC"/>
        <path opacity="0.62" d="M261.075 79.6677C261.226 79.6432 261.328 79.5013 261.304 79.3509C261.279 79.2004 261.137 79.0982 260.986 79.1227C260.836 79.1472 260.734 79.2891 260.758 79.4396C260.783 79.5901 260.925 79.6922 261.075 79.6677Z" fill="#7A9297"/>
        <path opacity="0.62" fill-rule="evenodd" clip-rule="evenodd" d="M261.035 81.8631C261.09 81.8633 261.144 81.8472 261.19 81.8169C261.235 81.7866 261.271 81.7434 261.292 81.6928C261.313 81.6421 261.319 81.5864 261.309 81.5325C261.298 81.4787 261.272 81.4292 261.233 81.3903C261.194 81.3515 261.145 81.325 261.091 81.3142C261.037 81.3034 260.981 81.3088 260.93 81.3298C260.88 81.3507 260.836 81.3863 260.806 81.4319C260.775 81.4775 260.759 81.5311 260.759 81.5859C260.759 81.6593 260.788 81.7296 260.84 81.7815C260.892 81.8335 260.962 81.8628 261.035 81.8631Z" fill="#7A9297"/>
        <path opacity="0.62" fill-rule="evenodd" clip-rule="evenodd" d="M261.035 84.0613C261.09 84.0613 261.143 84.0451 261.189 84.0147C261.234 83.9844 261.27 83.9413 261.291 83.8909C261.311 83.8404 261.317 83.7849 261.306 83.7314C261.296 83.6778 261.269 83.6286 261.231 83.59C261.192 83.5514 261.143 83.5251 261.089 83.5145C261.036 83.5038 260.98 83.5093 260.929 83.5302C260.879 83.5511 260.836 83.5864 260.805 83.6318C260.775 83.6772 260.759 83.7306 260.759 83.7852C260.759 83.8214 260.766 83.8574 260.78 83.8909C260.794 83.9243 260.814 83.9548 260.84 83.9804C260.866 84.006 260.896 84.0264 260.929 84.0403C260.963 84.0541 260.999 84.0613 261.035 84.0613Z" fill="#7A9297"/>
        <path opacity="0.62" fill-rule="evenodd" clip-rule="evenodd" d="M261.035 86.2625C261.09 86.2627 261.144 86.2466 261.19 86.2162C261.236 86.1859 261.271 86.1426 261.292 86.0919C261.314 86.0412 261.319 85.9854 261.308 85.9315C261.298 85.8776 261.271 85.8281 261.232 85.7893C261.194 85.7505 261.144 85.7241 261.09 85.7134C261.036 85.7027 260.98 85.7083 260.93 85.7294C260.879 85.7505 260.836 85.7862 260.805 85.832C260.775 85.8777 260.759 85.9315 260.759 85.9864C260.759 86.0595 260.788 86.1296 260.84 86.1813C260.892 86.2331 260.962 86.2622 261.035 86.2625Z" fill="#7A9297"/>
        <path opacity="0.62" d="M261.075 88.4636C261.226 88.4391 261.328 88.2972 261.304 88.1467C261.279 87.9962 261.137 87.8941 260.987 87.9186C260.836 87.9431 260.734 88.085 260.758 88.2355C260.783 88.386 260.925 88.4882 261.075 88.4636Z" fill="#7A9297"/>
        <path opacity="0.62" d="M261.075 90.6621C261.226 90.6376 261.328 90.4957 261.304 90.3452C261.279 90.1947 261.137 90.0926 260.986 90.1171C260.836 90.1416 260.734 90.2835 260.758 90.434C260.783 90.5845 260.925 90.6866 261.075 90.6621Z" fill="#7A9297"/>
        <path opacity="0.62" d="M261.075 92.8606C261.226 92.8361 261.328 92.6942 261.304 92.5437C261.279 92.3933 261.137 92.2911 260.987 92.3156C260.836 92.3401 260.734 92.482 260.758 92.6325C260.783 92.783 260.925 92.8851 261.075 92.8606Z" fill="#7A9297"/>
    </g>
    <path opacity="0.54" d="M206.042 204.631L258.013 102.705L282.417 87.9415L301.98 204.9L206.042 204.631Z" fill="white"/>
    <path d="M224.787 236.558C242.119 236.558 256.169 233.698 256.169 230.169C256.169 226.641 242.119 223.78 224.787 223.78C207.455 223.78 193.404 226.641 193.404 230.169C193.404 233.698 207.455 236.558 224.787 236.558Z" fill="#E9E9E7"/>
    <path d="M127.918 242.946C142.761 242.946 154.793 239.179 154.793 234.531C154.793 229.883 142.761 226.116 127.918 226.116C113.075 226.116 101.042 229.883 101.042 234.531C101.042 239.179 113.075 242.946 127.918 242.946Z" fill="#E9E9E7"/>
    <path d="M51.8862 227.195C76.5072 227.195 96.4665 225.06 96.4665 222.425C96.4665 219.791 76.5072 217.656 51.8862 217.656C27.2651 217.656 7.30579 219.791 7.30579 222.425C7.30579 225.06 27.2651 227.195 51.8862 227.195Z" fill="#E9E9E7"/>
    <path d="M107.672 10.1493V201.714L194.668 193.793V16.4308L107.672 10.1493Z" fill="white"/>
    <path d="M105.705 26.3307L196.482 33.7703V19.3745C196.482 19.3745 200.375 13.3175 181.535 11.2355C162.694 9.15349 105.705 7.62259 105.705 7.62259V26.3307Z" fill="#DAF0FD"/>
    <path d="M194.72 16.4308H188.806V196.017H194.72V16.4308Z" fill="#053C52"/>
    <path d="M96.6031 190.772C96.7289 196.935 97.0612 203.104 96.9257 209.262C96.7827 215.611 99.0893 220.375 104.691 223.465L107.034 223.922L107.972 223.915C127.544 221.788 147.001 218.747 166.636 217.227C172.955 216.422 179.26 215.49 185.595 214.846C193.174 214.077 196.349 211.505 197.316 203.781C197.881 199.259 197.48 194.617 197.513 190.029C196.036 189.59 194.56 189.151 193.084 188.711C192.319 188.879 115.889 195.574 113.301 195.802C110.758 196.542 109.398 195.904 109.486 192.941C109.586 189.574 109.411 186.197 109.355 182.825C105.365 184.109 104.321 182.534 104.341 178.558C104.472 153.717 104.368 128.875 104.359 104.034C104.347 74.1259 104.502 44.218 104.23 14.3134C104.169 7.65261 106.567 3.27263 112.338 0.429989C103.12 -1.2771 97.6516 2.80637 97.0537 12.0702C95.8708 30.3841 96.9461 48.728 96.4988 67.0537L96.6031 190.772ZM99.4636 130.262H98.5807V101.834H99.4636V130.262Z" fill="#053C52"/>
    <path d="M197.929 180.997C197.954 168.391 197.979 155.788 198.005 143.186L198.075 143.199L198.031 130.705C198.046 123.323 198.06 115.942 198.075 108.561L197.951 108.523L197.85 80.1067C197.869 65.6886 197.884 51.2699 197.894 36.8504C197.872 32.5714 197.859 28.2913 197.829 24.0113C197.76 13.7172 193.565 9.29312 183.255 8.41218C176.794 7.86428 170.351 7.1649 163.898 6.47841C163.038 6.3871 162.21 5.98316 161.368 5.72639C149.476 5.01412 137.71 3.17705 125.897 1.76003C121.381 1.22287 116.853 0.86727 112.33 0.430023C106.56 3.27266 104.158 7.6548 104.222 14.3134C104.494 44.2181 104.339 74.1259 104.351 104.034C104.361 128.875 104.459 153.717 104.334 178.558C104.334 179.011 104.344 179.433 104.373 179.823V217.853C104.373 217.853 103.405 225.415 114.475 223.171L188.425 214.428C188.425 214.428 196.508 213.901 197.256 204.16L197.579 189.375C197.697 188.363 197.816 187.351 197.936 186.339C197.822 186.107 197.731 185.865 197.662 185.616L197.737 182.167C197.809 181.776 197.879 181.386 197.929 180.997ZM187.601 189.236L113.293 195.805C113.293 195.805 109.511 196.95 109.509 193.916L109.444 170.889C109.552 157.5 109.66 144.113 109.767 130.726C109.78 130.208 109.792 129.687 109.805 129.164L109.718 112.214C109.726 111.854 109.732 111.494 109.74 111.139C109.746 97.0615 109.752 82.9837 109.757 68.9058C109.74 60.8893 109.723 52.8724 109.706 44.8551C109.695 35.8309 109.715 26.8163 109.652 17.7974C109.634 15.2051 110.163 13.3379 113.346 13.8031C114.085 13.8031 114.831 13.7537 115.564 13.8257C130.709 15.3111 145.853 16.8065 160.996 18.312C169.671 19.1779 178.338 20.1158 187.02 20.958C190.693 21.3147 193.001 22.4234 192.731 26.9151C192.424 32.0568 192.833 37.249 193.048 42.4143C193.418 51.2763 193.646 60.1405 192.977 68.9929C193.43 76.6323 193.376 84.274 193.066 91.9156L193.137 92.8298C193.158 92.8588 193.18 92.8846 193.201 92.9125L192.928 142.301C192.866 146.556 192.804 150.811 192.742 155.067C192.762 158.12 193.577 161.178 192.68 164.225C193.063 165.292 193.063 166.459 192.68 167.526C193.061 170.781 193.232 174.058 193.193 177.335L192.951 182.681C192.879 183.627 192.789 184.574 192.681 185.52L192.788 186.365C192.788 186.407 192.798 186.449 192.803 186.492C192.829 186.98 192.578 188.787 187.601 189.236Z" fill="#1988A4"/>
    <path d="M118.187 24.3303C119.541 24.3303 120.64 22.9633 120.64 21.277C120.64 19.5908 119.541 18.2238 118.187 18.2238C116.832 18.2238 115.734 19.5908 115.734 21.277C115.734 22.9633 116.832 24.3303 118.187 24.3303Z" fill="#232F63"/>
    <path d="M125.666 25.1338C127.021 25.1338 128.119 23.7669 128.119 22.0806C128.119 20.3944 127.021 19.0274 125.666 19.0274C124.311 19.0274 123.213 20.3944 123.213 22.0806C123.213 23.7669 124.311 25.1338 125.666 25.1338Z" fill="#51BACD"/>
    <path d="M132.984 25.9375C134.339 25.9375 135.437 24.5705 135.437 22.8843C135.437 21.198 134.339 19.8311 132.984 19.8311C131.629 19.8311 130.531 21.198 130.531 22.8843C130.531 24.5705 131.629 25.9375 132.984 25.9375Z" fill="white"/>
    <path d="M151.061 209.392C144.229 209.786 143.128 209.238 142.838 206.104C142.516 202.58 144.41 200.947 149.141 200.585C152.091 200.358 155.034 200.048 157.981 199.766C160.807 199.495 163.102 199.976 163.185 203.495C163.262 206.711 161.758 208.428 158.454 208.642C155.502 208.833 152.565 209.234 151.061 209.392Z" fill="white"/>
    <path d="M241.382 97.936C242.494 100.551 245.087 116.926 245.929 122.365C246.063 123.233 246.28 126.253 245.783 128.09C245.237 130.109 244.827 132.16 244.683 134.246L243.5 151.275L238.253 141.693L240.246 123.434L235.843 109.816L241.382 97.936Z" fill="#FFDCDC"/>
    <path d="M106.084 39.8379L113.518 40.3998L113.029 65.34L106.084 65.0596V39.8379Z" fill="#1988A4"/>
    <path d="M113.518 35.9007L120.952 36.5635L120.469 65.6216L113.518 65.3595V35.9007Z" fill="#1988A4"/>
    <path d="M120.952 40.5804L128.386 41.1433L127.897 66.0824L120.952 65.802V40.5804Z" fill="#1988A4"/>
    <path d="M128.386 36.643L135.82 37.3059L135.337 66.3651L128.386 66.1019V36.643Z" fill="#81B8D3"/>
    <path d="M136.154 36.8375L140.991 37.0566L143.357 66.0201L138.867 66.1706L136.154 36.8375Z" fill="#053C52"/>
    <path d="M144.807 36.5795L153.572 37.4218L152.406 66.4616L144.202 66.0319L144.807 36.5795Z" fill="#BF512B"/>
    <path d="M242.778 103.758C242.778 103.758 240.834 114.845 238.851 119.12L237.431 115.36L241.087 97.0969C241.087 97.0969 242.253 100.971 242.778 103.758Z" fill="#FCC1C0"/>
    <path d="M239.844 115.401C239.844 115.401 241.895 121.587 241.457 123.673C241.02 125.76 240.109 132.069 240.109 132.069L239.746 128.053L240.251 123.434L237.837 116.645L239.844 115.401Z" fill="#FCC1C0"/>
    <path d="M216.714 156.358C216.714 156.358 214.892 165.933 212.561 174.892C212.561 174.892 211.837 178.867 212.561 183.027C213.285 187.187 215.375 214.321 213.757 220.829C212.138 227.337 217.989 220.929 217.989 220.929C217.989 220.929 222.835 200.743 223.474 193.263C223.958 187.64 223.393 178.408 223.393 178.408L231.111 162.78L216.714 156.358Z" fill="#FFE7E5"/>
    <path d="M229.871 159.647C229.871 159.647 230.113 177.724 230.474 178.327C230.836 178.93 238.316 200.983 238.557 214.24C238.798 227.497 243.418 214.477 243.418 214.477C243.418 214.477 245.916 190.017 242.297 182.062C242.297 182.062 240.361 176.278 241.211 171.939C242.06 167.6 243.857 157.114 243.857 157.114L229.871 159.647Z" fill="#FCE1E0"/>
    <path d="M230.053 168.125C230.053 168.125 234.737 168.848 237.954 169.009C241.17 169.171 237.713 176.481 238.436 179.614C239.16 182.747 243.219 184.538 243.423 198.334C243.627 212.13 243.665 211.665 243.665 211.665C243.665 211.665 245.023 191.407 243.379 185.713C243.379 185.713 242.88 183.089 242.297 182.06C241.714 181.031 240.658 174.887 241.025 173.442C241.392 171.997 242.568 164.074 242.568 164.074H230.264C230.264 164.074 229.781 164.095 230.053 168.125Z" fill="#FCC1C0"/>
    <path d="M214.757 166.46C214.757 166.46 221.628 168.609 224.685 168.444C227.741 168.28 222.512 175.113 222.271 178.246C222.031 181.38 223.669 185.168 221.677 199.377C219.684 213.586 219.126 216.049 219.126 216.049C219.126 216.049 223.965 196.067 223.603 191.255C223.603 191.255 223.959 180.62 223.397 178.408C223.397 178.408 230.053 165.612 230.053 164.889C230.053 164.166 215.041 164.889 215.041 164.889L214.757 166.46Z" fill="#FFCECA"/>
    <path d="M219.497 133.599C219.497 133.599 213.385 152.319 211.696 163.648C211.696 163.648 213.478 164.049 215.04 164.937C216.601 165.824 228.912 167.107 232.525 165.419C232.525 165.419 240.728 167.588 247.002 165.5C247.002 165.5 248.292 143.646 239.442 131.755C239.442 131.751 220.797 131.56 219.497 133.599Z" fill="#062051"/>
    <path d="M221.649 225.529C221.719 224.414 221.446 223.381 220.723 222.46C220.095 221.66 219.681 220.765 219.325 219.848C219.19 219.498 218.982 219.428 218.628 219.535C218.028 219.713 217.542 220.056 217.079 220.42C216.873 220.581 216.619 220.668 216.358 220.667C215.406 220.697 214.455 220.729 213.504 220.774C213.396 220.786 213.287 220.774 213.184 220.74C213.081 220.706 212.987 220.65 212.907 220.577C212.654 220.325 212.334 220.151 211.986 220.076C211.687 220.022 211.494 220.076 211.441 220.412C211.16 222.231 210.855 224.047 210.553 225.863C210.446 226.523 210.318 227.178 210.159 227.83C209.944 228.725 209.328 229.286 208.422 229.635C207.494 229.994 206.517 230.223 205.568 230.526C205.168 230.634 204.782 230.784 204.414 230.974C204.112 231.148 203.843 231.352 203.911 231.726C204.341 231.818 204.777 231.917 205.214 232.003C207.687 232.489 210.175 232.856 212.72 232.786C213.232 232.78 213.726 232.596 214.118 232.266C214.758 231.735 215.1 231.02 215.548 230.371C216.094 229.583 216.559 228.738 217.332 228.103C218.618 227.049 220.162 226.322 221.649 225.529Z" fill="#062051"/>
    <path d="M221.649 225.529C220.162 226.322 218.623 227.049 217.337 228.108C216.564 228.742 216.098 229.587 215.553 230.375C215.104 231.02 214.762 231.74 214.122 232.271C213.731 232.601 213.237 232.784 212.724 232.791C210.179 232.86 207.691 232.493 205.218 232.007C204.782 231.921 204.349 231.823 203.915 231.73C203.892 231.919 203.902 232.063 204.176 232.117C206.738 232.625 209.307 233.084 211.946 233.068C212.269 233.068 212.591 233.03 212.914 233.001C213.302 232.975 213.679 232.866 214.021 232.681C214.362 232.495 214.659 232.238 214.891 231.927C215.402 231.263 215.83 230.554 216.275 229.855C216.972 228.767 217.911 227.855 219.02 227.19C219.327 227.002 219.679 226.727 220.049 226.904C220.377 227.061 220.236 227.453 220.245 227.741C220.294 229.254 220.214 230.764 220.151 232.275C220.143 232.445 220.078 232.644 220.389 232.662C220.649 232.677 220.854 232.642 220.926 232.362C221.141 231.473 221.215 230.568 221.325 229.667C221.47 228.492 221.498 227.304 221.676 226.135C221.686 225.933 221.677 225.73 221.649 225.529Z" fill="#000509"/>
    <path d="M247.617 220.146C247.709 219.043 247.378 217.946 246.691 217.078C246.063 216.276 245.649 215.382 245.293 214.466C245.158 214.115 244.95 214.046 244.595 214.151C243.996 214.331 243.51 214.672 243.047 215.036C242.842 215.198 242.587 215.286 242.326 215.285C241.374 215.314 240.423 215.346 239.472 215.392C239.364 215.404 239.255 215.392 239.152 215.358C239.049 215.324 238.955 215.268 238.875 215.194C238.622 214.943 238.302 214.769 237.953 214.695C237.655 214.64 237.462 214.695 237.41 215.03C237.128 216.849 236.822 218.665 236.521 220.481C236.414 221.141 236.286 221.796 236.127 222.449C235.912 223.343 235.295 223.904 234.39 224.254C233.462 224.612 232.484 224.841 231.536 225.144C231.136 225.252 230.75 225.402 230.382 225.592C230.08 225.766 229.811 225.97 229.879 226.344C230.309 226.436 230.745 226.534 231.181 226.62C233.654 227.106 236.142 227.474 238.688 227.403C239.2 227.396 239.694 227.213 240.086 226.883C240.726 226.352 241.068 225.637 241.516 224.989C242.062 224.199 242.527 223.355 243.299 222.72C244.591 221.666 246.13 220.939 247.617 220.146Z" fill="#062051"/>
    <path d="M247.617 220.146C246.13 220.939 244.591 221.666 243.304 222.724C242.532 223.359 242.066 224.204 241.521 224.993C241.072 225.638 240.73 226.356 240.09 226.887C239.699 227.217 239.205 227.401 238.692 227.407C236.146 227.478 233.659 227.111 231.185 226.624C230.755 226.538 230.317 226.44 229.883 226.348C229.86 226.536 229.87 226.68 230.144 226.735C232.706 227.242 235.274 227.701 237.913 227.685C238.235 227.685 238.558 227.647 238.881 227.618C239.269 227.592 239.646 227.483 239.988 227.297C240.33 227.112 240.627 226.855 240.859 226.543C241.37 225.878 241.798 225.17 242.242 224.471C242.939 223.383 243.879 222.471 244.988 221.806C245.295 221.618 245.647 221.343 246.016 221.52C246.345 221.678 246.203 222.069 246.213 222.358C246.262 223.869 246.182 225.38 246.119 226.89C246.111 227.06 246.046 227.261 246.357 227.278C246.617 227.292 246.821 227.258 246.894 226.977C247.109 226.089 247.181 225.183 247.293 224.283C247.438 223.108 247.466 221.92 247.644 220.752C247.653 220.549 247.644 220.347 247.617 220.146Z" fill="#000509"/>
    <path d="M235.743 149.346L232.525 165.415C232.525 165.415 234.999 165.981 236.504 166.137C238.01 166.292 235.341 157.361 235.743 149.346Z" fill="#051633"/>
    <path d="M219.218 134.467C219.218 134.467 234.748 132.876 244.704 143.245C244.704 143.245 243.837 138.921 239.444 131.75C237.604 123.483 223.665 122.497 219.218 134.467Z" fill="#051633"/>
    <path d="M236.506 63.5997C236.506 63.5997 230.741 63.1925 227.7 70.3486C227.7 70.3486 227.127 72.0954 223.176 73.6016C223.176 73.6016 222.3 75.0089 225.64 76.0596C225.64 76.0596 225.348 78.8743 225.217 79.7918C225.076 80.7769 225.227 81.7976 231.698 85.3782C231.698 85.3782 231.762 88.0469 228.713 92.9361C225.802 97.605 237.843 94.005 237.843 94.005C237.843 94.005 236.66 86.748 240.512 84.6165C244.364 82.4851 252.677 75.0251 245.105 69.6954C237.532 64.3657 236.506 63.5997 236.506 63.5997Z" fill="#FFE7E5"/>
    <path d="M234.275 70.8901C234.275 70.8901 237.27 75.9329 233.63 80.4214C229.989 84.9099 241.836 76.8762 241.836 76.8762L234.275 70.8901Z" fill="#FFCECA"/>
    <path d="M231.392 87.3582C231.392 87.3582 235.627 87.9029 237.736 90.102L238.274 86.4773L231.761 84.9507L231.392 87.3582Z" fill="#FFCECA"/>
    <path d="M228.816 92.7653C228.816 92.7653 233.711 96.259 238.046 92.9329C238.046 92.9329 242.177 95.9582 241.81 101.742C241.443 107.526 237.105 117.006 237.949 122.67C238.458 126.082 240.237 129.208 241.57 131.157C241.707 131.358 241.787 131.593 241.802 131.836C241.817 132.079 241.766 132.322 241.654 132.539C241.542 132.755 241.373 132.937 241.166 133.066C240.959 133.195 240.721 133.265 240.478 133.27C232.221 133.45 231.277 133.52 219.635 134.702C219.422 134.724 219.208 134.693 219.01 134.612C218.812 134.532 218.638 134.404 218.501 134.24C218.365 134.075 218.271 133.88 218.228 133.671C218.185 133.462 218.194 133.246 218.254 133.041C219.19 129.894 219.172 121.188 218.728 119.06C218.126 116.167 213.459 115.605 216.115 109.821L225.765 105.121C225.765 105.121 231.315 99.035 225.464 93.672C225.469 93.6677 227.318 93.1058 228.816 92.7653Z" fill="#51BACD"/>
    <path d="M228.876 95.8667C227.429 92.5836 225.469 93.6676 225.469 93.6676C229.811 96.6811 227.704 101.742 227.704 101.742C227.704 102.04 227.317 102.891 226.782 103.925C224.964 104.819 216.5 108.987 216.451 109.082C214.672 112.577 215.46 114.057 215.46 114.057C219.312 112.578 221.892 110.985 223.62 109.502C228.404 106.03 230.324 99.1542 228.876 95.8667Z" fill="#1988A4"/>
    <path d="M234.275 70.8901C234.275 70.8901 228.586 66.552 228.656 65.6485C228.726 64.745 238.722 58.9599 241.837 66.7927C244.951 74.6255 240.367 75.8319 240.367 75.8319L234.275 70.8901Z" fill="#102552"/>
    <path d="M241.209 65.5336C241.209 65.5336 239.845 69.876 235.481 71.872C235.481 71.872 237.994 73.9057 237.19 76.5572C236.386 79.2086 242.574 70.2552 241.209 65.5336Z" fill="#051633"/>
    <path d="M241.524 66.0889C241.524 66.0889 237.897 78.4833 228.246 85.4728C228.246 85.4728 234.881 85.6533 238.862 89.2093C242.843 92.7653 246.65 89.6927 248.185 83.7302C249.719 77.7678 254.213 68.6909 241.524 66.0889Z" fill="#102552"/>
    <path d="M250.155 75.6794C250.108 75.8373 249.334 84.0666 248.731 87.5614C248.128 91.0561 244.669 91.5793 244.669 91.5793C244.669 91.5793 247.873 90.2128 248.181 86.5977C248.49 82.9826 249.455 76.8365 249.455 76.8365L250.155 75.6794Z" fill="#102552"/>
    <path d="M30.5659 198.55C30.5659 198.55 27.3312 210.872 24.5804 212.371C21.8296 213.87 12.2911 218.773 12.2911 218.773C12.2911 218.773 17.5206 224.298 30.025 217.637C30.025 217.637 30.0906 215.723 30.3594 213.35C30.6627 210.664 37.1515 205.128 38.8183 202.131C40.4851 199.133 30.5659 198.55 30.5659 198.55Z" fill="#FFD1CF"/>
    <path d="M72.7236 182.664C72.7236 182.664 65.1595 178.917 64.5971 177.98C64.0347 177.043 63.284 175.794 63.2217 174.169C63.1593 172.545 59.9074 171.172 59.9074 171.172C59.9074 171.172 58.3449 170.609 57.2824 168.486C57.2824 168.486 55.2188 168.611 56.0942 170.922C56.9695 173.233 59.9074 180.665 59.9074 180.665C59.9074 180.665 62.3807 179.538 64.3013 182.007C66.222 184.475 72.7236 190.346 72.7236 190.346V182.664Z" fill="#FFE7E5"/>
    <path d="M56.0942 170.919C56.0942 170.919 63.0335 174.854 63.9508 179.85C64.8681 184.847 71.7451 186.428 71.7451 186.428L70.6557 188.44C70.6557 188.44 66.722 184.942 63.6486 181.314C63.6486 181.314 62.3023 180.082 61.2 181.099C60.0978 182.115 55.4952 173.204 56.0942 170.919Z" fill="#FCC1C0"/>
    <path d="M10.4588 219.496C10.1523 218.862 10.1921 217.975 10.5997 217.813C11.1632 217.589 13.1655 216.82 14.2979 216.555C15.4302 216.291 17.1766 216.162 16.5379 216.35C15.8991 216.538 16.8293 217.704 17.8283 217.791C21.2974 218.093 24.1472 216.519 26.1732 216.379C29.0992 216.177 30.1724 213.527 30.3671 213.087C30.8553 213.448 32.3027 215.889 32.4361 216.633C32.5598 217.31 32.7759 218.544 32.4501 219.185C32.2253 219.628 31.7403 220.515 31.75 221.519C31.75 221.519 31.1349 221.803 29.6165 221.854C28.6562 221.886 27.4238 221.576 27.4238 221.576V220.044C26.8371 219.956 26.2434 219.923 25.6505 219.945C24.644 219.978 23.3998 220.432 22.7922 220.835C22.3158 221.15 21.8136 221.682 21.2512 221.801C19.6285 222.16 18.4628 222.263 16.697 222.104C12.9881 221.781 10.9815 220.577 10.4588 219.496Z" fill="#1F2254"/>
    <path d="M27.4291 198.55C27.4291 198.55 24.1923 210.872 21.4436 212.371C18.695 213.87 9.1554 218.773 9.1554 218.773C9.1554 218.773 14.3849 224.298 26.8882 217.637C26.8882 217.637 26.9549 215.723 27.2226 213.35C27.5259 210.664 34.0147 205.128 35.6815 202.131C37.3483 199.133 27.4291 198.55 27.4291 198.55Z" fill="#FFE7E5"/>
    <path d="M7.30904 219.758C7.00256 219.124 7.04235 218.237 7.44992 218.075C8.01341 217.852 10.0157 217.083 11.1481 216.817C12.2805 216.552 14.0269 216.424 13.3881 216.612C12.7493 216.8 13.6795 217.966 14.6785 218.053C18.1477 218.356 20.9974 216.781 23.0234 216.641C25.9495 216.439 27.0227 213.789 27.2173 213.35C27.7055 213.71 29.153 216.151 29.2863 216.9C29.41 217.576 29.6261 218.81 29.3003 219.453C29.0755 219.894 28.5906 220.782 28.6002 221.786C28.6002 221.786 27.9851 222.07 26.4667 222.12C25.5064 222.154 24.274 221.842 24.274 221.842V220.31C23.6872 220.223 23.0936 220.19 22.5008 220.211C21.4942 220.246 20.25 220.698 19.6424 221.102C19.166 221.418 18.6638 221.948 18.1014 222.069C16.4787 222.428 15.313 222.531 13.5472 222.372C9.83508 222.043 7.82844 220.84 7.30904 219.758Z" fill="#2D2E75"/>
    <path d="M63.0411 141.482C63.0411 141.482 62.8561 144.633 63.6863 146.579C63.6863 146.579 63.9014 148.494 63.0196 149.606C62.1378 150.718 63.9648 150.78 65.2327 150.471C65.2327 150.471 66.093 150.657 66.407 152.418C66.721 154.178 68.819 156.124 69.8707 155.63C70.9225 155.136 75.653 152.448 76.7972 153.22C77.9414 153.993 83.6925 160.079 83.6925 160.079C83.6925 160.079 88.4843 161.128 88.5155 158.132L88.1757 156.865C88.1757 156.865 83.3215 152.386 82.9806 150.163C82.6397 147.939 84.8979 142.934 82.2074 141.482C79.5168 140.031 72.1279 139.537 72.1279 139.537L63.0411 141.482Z" fill="#FFE7E5"/>
    <path d="M77.5789 141.466C77.5789 141.466 82.9159 143.062 75.6561 150.877C75.6561 150.877 83.3256 150.63 83.9439 144.822C84.5623 139.015 77.5789 141.466 77.5789 141.466Z" fill="#15204C"/>
    <path d="M81.4189 158.047C81.4189 158.047 87.4667 159.355 86.043 154.516L89.0948 157.372C89.0948 157.372 87.6872 160.45 85.1612 160.649L82.4577 159.134L81.4189 158.047Z" fill="#FCC1C0"/>
    <path d="M65.7778 144.003C65.7778 144.003 58.5889 143.479 61.4182 136.667C64.2475 129.855 70.4621 131.108 70.4621 131.108C70.4621 131.108 62.3925 141.467 65.7778 144.003Z" fill="#15204C"/>
    <path d="M64.1077 135C64.1077 135 59.2847 143.294 66.937 143.432C74.5893 143.571 75.1926 146.118 75.1926 146.118C75.1926 146.118 73.257 142.28 76.4218 141.531C79.5866 140.781 82.289 144.867 81.8717 147.647C81.4545 150.426 78.8607 151.4 78.8607 151.4C78.8607 151.4 84.5655 154.644 86.7453 147.318C88.9251 139.992 83.0815 131.333 75.4281 130.591C67.7747 129.849 64.1077 135 64.1077 135Z" fill="#232F63"/>
    <path d="M45.0275 189.472C45.0275 189.472 41.1562 203.752 33.4609 210.248L29.7455 208.49L41.7745 185.224L45.0275 189.472Z" fill="#D82723"/>
    <path d="M45.5287 187.536C45.5287 187.536 65.338 220.325 76.0852 221.95C86.8324 223.574 89.4725 214.393 91.4447 205.025C93.4169 195.657 58.7116 180.79 58.7116 180.79C58.7116 180.79 41.3702 169.97 38.0646 178.09C34.0975 187.84 25.2957 205.377 25.2957 205.377C25.2957 205.377 27.769 208.33 30.6327 209.33C30.6327 209.333 43.3392 194.479 45.5287 187.536Z" fill="#FF473D"/>
    <path d="M78.1627 197.737C78.1627 197.737 79.1585 204.215 65.8907 197.392C52.6228 190.569 51.0925 189.69 51.0925 189.69L56.964 188.443L78.1627 197.737Z" fill="#D82723"/>
    <path d="M25.8978 183.663V185.224L41.4648 196.218C41.4648 196.218 49.3032 190.846 58.9191 191.095L63.7841 177.623L48.63 164.926L43.8403 167.487L39.9884 177.908L25.8978 183.663Z" fill="#232F63"/>
    <path d="M78.5832 197.674C78.5832 197.674 87.3259 204.003 87.7238 210.749C88.1217 217.494 80.7748 221.533 66.3369 216.013C66.3369 216.013 74.1054 225.731 85.0548 220.861C85.0548 220.861 92.2597 218.075 93.9351 206.956L80.992 194.844L78.5832 197.674Z" fill="#D82723"/>
    <path d="M58.7115 177.623L62.0365 177.292L56.8017 190.346C56.8017 190.346 51.0958 189.347 42.0304 194.844L41.468 191.095L51.0904 183.976L58.7115 177.623Z" fill="#A8B6CC"/>
    <path d="M38.7762 177.043L42.9648 165.801L58.7082 177.623L53.4679 187.536L38.7762 177.043Z" fill="#F5F8FC"/>
    <path d="M25.5903 180.029L38.7765 177.042L53.4682 187.535C53.4682 187.535 44.9663 188.534 41.4649 191.094L25.5903 180.029Z" fill="white"/>
    <path d="M42.965 165.801L47.4041 165.363L62.0333 177.293L58.7083 177.623L42.965 165.801Z" fill="#FFE7E5"/>
    <path d="M42.0273 194.844L25.8979 183.663L25.585 180.029L41.4649 191.095L42.0273 194.844Z" fill="#CED9EA"/>
    <path d="M81.0039 158.779C81.0039 158.779 86.3527 159.997 87.1657 158.186C87.9787 156.374 88.1658 155.626 88.1658 155.626C88.1658 155.626 91.1671 153.939 95.6062 164.681C100.045 175.423 97.9193 196.41 96.4805 199.596C95.0417 202.783 95.4804 204.406 96.1063 206.591C96.7321 208.776 92.6049 209.339 90.8542 206.904C89.1035 204.468 76.4131 196.724 76.4131 196.724L83.7901 184.107L76.725 182.013L74.3495 191.223L70.3276 189.39C70.3276 189.39 71.8493 185.789 70.661 183.415C69.4727 181.041 77.2874 170.611 77.9133 166.989C78.5391 163.366 77.9047 161.179 81.0039 158.779Z" fill="white" stroke="#D8D8D8" stroke-miterlimit="10"/>
    <path d="M76.0379 180.79C76.0379 180.79 81.9524 183.725 84.4043 182.913C84.4043 182.913 79.5511 195.609 77.3886 197.319C75.226 199.028 73.0989 199.277 67.8479 196.404C62.5969 193.532 50.6549 186.973 50.6549 186.973C50.6549 186.973 45.091 186.724 42.2778 185.537C40.6765 185.292 39.1436 184.718 37.7763 183.85C37.7763 183.85 34.6502 181.164 41.9649 182.351C49.2795 183.538 67.8124 186.812 73.8355 190.8C73.8355 190.8 75.5378 186.973 76.0379 180.79Z" fill="#FFE7E5"/>
    <path d="M44.0866 180.265C44.0866 180.265 44.962 182.263 47.8686 183.637C50.7753 185.011 44.3673 183.482 44.3673 183.482C44.3673 183.482 43.2736 182.108 43.5866 180.796C43.8995 179.484 44.0866 180.265 44.0866 180.265Z" fill="#FFE7E5"/>
    <path d="M43.8855 182.669L45.5287 182.884C45.5287 182.884 43.7866 182.427 43.6468 180.573C43.6468 180.571 43.2532 181.509 43.8855 182.669Z" fill="#FCC1C0"/>
    <path d="M38.5054 184.205C38.5054 184.205 40.9647 185.121 41.9025 185.079C42.8402 185.037 49.7591 186.245 50.5925 186.64C51.4259 187.035 53.2605 188.404 53.2605 188.404L50.6548 186.973C50.6548 186.973 45.1705 186.766 42.2778 185.537C42.2778 185.537 39.5055 185.207 38.5054 184.205Z" fill="#FCC1C0"/>
    <path d="M77.0799 172.484L75.1646 180.029L76.04 180.79C76.04 180.79 75.8034 186.055 73.8377 190.8L73.2903 190.469L75.0109 184.538C75.4604 183.325 75.1948 181.676 74.8141 180.44C74.6356 179.862 74.599 179.211 74.9743 178.184L77.0799 172.484Z" fill="#E5E5E5"/>
    <path d="M88.041 175.419C87.9335 174.989 86.1656 182.539 86.1656 182.539L84.4041 182.913C84.4041 182.913 80.4253 194.235 77.3884 197.319C77.3884 197.319 81.8899 199.652 82.7147 200.964C82.7147 200.964 79.3692 196.217 86.329 185.432C86.329 185.432 88.9164 178.853 88.041 175.419Z" fill="#E5E5E5"/>
    <path d="M76.8906 181.187C76.8906 181.187 79.7737 183.663 81.2814 184.386C82.789 185.109 81.0663 191.133 81.0663 191.133C81.0663 191.133 84.1365 184.083 84.3999 182.913C84.4042 182.913 79.607 182.86 76.8906 181.187Z" fill="#FCC1C0"/>
    <path d="M337.581 222.017C373.543 222.017 402.696 217.507 402.696 211.944C402.696 206.381 373.543 201.872 337.581 201.872C301.619 201.872 272.465 206.381 272.465 211.944C272.465 217.507 301.619 222.017 337.581 222.017Z" fill="#E9E9E7"/>
    <path d="M380.159 163.723H281.15C280.354 163.723 279.708 164.368 279.708 165.163V193.386C279.708 194.181 280.354 194.826 281.15 194.826H380.159C380.955 194.826 381.601 194.181 381.601 193.386V165.163C381.601 164.368 380.955 163.723 380.159 163.723Z" fill="#C8D8D8"/>
    <path d="M296.838 163.723H294.157V194.826H296.838V163.723Z" fill="#062051"/>
    <path d="M368.938 163.723H364.023V194.826H368.938V163.723Z" fill="#51BACD"/>
    <path d="M300.86 163.723H298.18V194.826H300.86V163.723Z" fill="#51BACD"/>
    <path d="M362.384 163.723H359.703V194.826H362.384V163.723Z" fill="#51BACD"/>
    <path d="M383.538 198.21H287.404V213.886H383.538V198.21Z" fill="white"/>
    <path d="M383.538 208.241H287.404V210.027H383.538V208.241Z" fill="#CED9EA"/>
    <path d="M383.538 204.967H287.404V206.752H383.538V204.967Z" fill="#CED9EA"/>
    <path d="M383.538 201.693H287.404V203.479H383.538V201.693Z" fill="#CED9EA"/>
    <path d="M385.772 194.923H289.684C288.397 194.924 287.162 195.436 286.252 196.346C285.341 197.255 284.829 198.488 284.828 199.775V211.283C284.829 212.569 285.341 213.802 286.252 214.712C287.162 215.621 288.397 216.133 289.684 216.134H385.772V212.673H289.684C289.316 212.671 288.963 212.524 288.702 212.264C288.442 212.004 288.294 211.651 288.293 211.283V199.775C288.294 199.406 288.442 199.054 288.702 198.793C288.963 198.533 289.316 198.386 289.684 198.384H385.772V194.923Z" fill="#062051"/>
    <path d="M332.548 161.646C332.548 161.646 320.911 161.676 321.971 165.116C323.031 168.556 334.285 165.91 334.285 165.91C334.285 165.91 334.214 161.402 332.548 161.646Z" fill="#F85840"/>
    <path d="M323.566 162.941C323.566 162.941 331.031 161.866 331.885 164.047C331.885 164.047 332.553 165.161 332.392 166.29L335.212 165.634L332.829 161.07C332.829 161.07 324.909 162.037 323.566 162.941Z" fill="#D82723"/>
    <path d="M331.041 103.357C331.041 103.357 327.731 119.926 338.255 121.753C338.255 121.753 339.648 128.127 336.735 128.522C333.822 128.916 343.421 132.953 345.408 128.853C345.408 128.853 342.23 124.222 344.547 118.931C345.408 116.963 346.491 115.654 347.51 114.785C350.453 112.276 350.699 107.74 347.995 104.976C347.908 104.887 347.817 104.798 347.725 104.711C344.018 101.207 331.041 103.357 331.041 103.357Z" fill="#FAC2AE"/>
    <path d="M336.253 101.785C336.253 101.785 341.286 97.5535 346.544 101.012C349.447 102.92 351.031 106.312 350.753 109.771L350.746 109.858C350.746 109.858 350.662 105.004 345.105 105.528C339.549 106.052 336.253 101.785 336.253 101.785Z" fill="#051633"/>
    <path d="M333.496 104.748C333.496 104.748 331.468 107.674 330.627 111.08C330.627 111.08 329.831 105.419 330.547 104.634C331.263 103.85 333.556 103.566 333.496 104.748Z" fill="#F1A080"/>
    <path d="M331.411 115.331C331.411 115.331 331.706 122.613 339.658 121.718L331.411 115.331Z" fill="#FAC2AE"/>
    <path d="M330.887 113.163C330.887 113.163 336.479 112.51 336.254 114.327C336.254 114.327 336.814 113.195 336.181 112.998C335.604 112.817 331.546 112.087 330.835 112.716C330.765 112.779 330.887 113.078 330.887 113.163Z" fill="#051633"/>
    <path d="M334.103 104.256C334.103 104.256 336.42 104.364 337.43 107.708C338.441 111.052 346.356 114.085 346.356 114.085L347.827 114.503C347.827 114.503 350.9 112.748 348.365 111.312C345.829 109.876 336.763 101.287 334.103 104.256Z" fill="#F1A080"/>
    <path d="M338.681 113.327C338.681 113.327 345.119 112.912 344.895 114.555C344.895 114.555 345.226 113.304 344.592 113.125C343.959 112.945 338.711 112.467 338.681 113.327Z" fill="#051633"/>
    <path d="M345.75 112.135C345.75 112.135 346.604 113.907 346.288 114.292C345.972 114.678 347.696 111.745 347.696 111.745L345.75 112.135Z" fill="#051633"/>
    <path d="M336.562 101.693C336.562 101.693 331.022 97.4342 329.012 104.373C329.012 104.373 333.395 100.156 333.496 104.748L336.562 101.693Z" fill="#051633"/>
    <path d="M338.574 125.484C338.574 125.484 340.213 128.043 341.296 127.733C343.405 127.133 343.898 124.98 343.898 124.98L346.93 129.555C346.93 129.555 340.164 129.582 337.416 128.557C334.669 127.532 337.678 128.035 338.574 125.484Z" fill="#F1A080"/>
    <path d="M344.393 125.947C344.393 125.947 349.778 127.15 353.287 127.548C356.795 127.945 358.782 134.228 359.576 138.398C360.371 142.569 363.549 151.098 361.894 152.686C360.239 154.275 340.682 159.5 340.682 159.5L321.971 154.671C321.971 154.671 324.685 138.598 327.399 132.314C327.399 132.314 328.199 128.677 330.547 127.949C332.894 127.222 338.341 126.253 338.341 126.253C338.341 126.253 338.438 128.697 340.682 128.584C340.682 128.579 343.715 129.377 344.393 125.947Z" fill="#FEC435"/>
    <path d="M332.548 161.646L333.226 166.505C333.226 166.505 343.292 166.881 363.473 163.266C377.108 160.822 372.222 148.1 359.087 151.8C358.756 151.895 358.432 152.014 358.119 152.157C355.702 153.254 344.133 158.383 332.548 161.646Z" fill="#14204C"/>
    <path d="M332.548 160.773L332.676 162.566C332.676 162.566 347.638 159.409 352.076 154.759C352.071 154.759 337.383 160.376 332.548 160.773Z" fill="#0C1530"/>
    <path d="M337.33 156.439C337.33 156.439 344.944 152.404 347.857 152.603C350.77 152.801 351.234 156.307 342.892 158.953C334.551 161.599 334.417 159.283 337.33 156.439Z" fill="#F85840"/>
    <path d="M330.547 135.616C330.547 135.616 328.857 144.612 328.989 148.911L331.703 149.837C331.703 149.837 330.457 147.918 330.547 135.616Z" fill="#F8753F"/>
    <path d="M352.691 136.145C352.691 136.145 356.067 145.67 355.67 149.11L351.964 150.498C351.964 150.498 355.206 147.456 352.691 136.145Z" fill="#F8753F"/>
    <path d="M320.249 146.001C320.249 146.001 334.417 145.008 337.462 153.736L320.117 150.495L320.249 146.001Z" fill="white"/>
    <path d="M320.117 150.499L337.463 153.739V155.469L319.851 151.954L320.117 150.499Z" fill="#4F81A3"/>
    <path d="M337.463 153.739L352.581 148.744L353.088 150.499L337.33 155.79L337.463 153.739Z" fill="#4F81A3"/>
    <path d="M337.462 153.739C337.462 153.739 338.323 143.487 350.044 141.9L350.819 147.82L337.462 153.739Z" fill="#A2B3CC"/>
    <path d="M351.104 145.339L352.078 148.911L337.465 153.739C337.465 153.739 341.963 147.522 351.104 145.339Z" fill="white"/>
    <path d="M335.081 116.571H331.108C330.683 116.569 330.275 116.399 329.974 116.099C329.673 115.798 329.503 115.39 329.502 114.965V114.039C329.503 113.614 329.673 113.206 329.974 112.906C330.275 112.605 330.683 112.435 331.108 112.434H335.081C335.506 112.435 335.914 112.605 336.215 112.906C336.516 113.206 336.686 113.614 336.687 114.039V114.965C336.686 115.39 336.516 115.798 336.215 116.099C335.914 116.399 335.506 116.569 335.081 116.571ZM331.108 112.867C330.797 112.867 330.499 112.991 330.279 113.21C330.058 113.43 329.935 113.728 329.934 114.039V114.965C329.934 115.276 330.058 115.574 330.278 115.794C330.498 116.014 330.797 116.138 331.108 116.138H335.081C335.392 116.137 335.69 116.014 335.91 115.794C336.13 115.574 336.254 115.276 336.254 114.965V114.039C336.254 113.728 336.13 113.43 335.91 113.21C335.69 112.991 335.392 112.867 335.081 112.867H331.108Z" fill="#FF473D"/>
    <path d="M343.72 116.701H339.748C339.322 116.699 338.914 116.53 338.614 116.229C338.313 115.928 338.143 115.521 338.141 115.096V114.17C338.143 113.745 338.313 113.338 338.614 113.037C338.914 112.736 339.322 112.567 339.748 112.565H343.72C344.146 112.566 344.554 112.736 344.855 113.037C345.156 113.337 345.326 113.745 345.328 114.17V115.096C345.326 115.521 345.156 115.929 344.855 116.229C344.554 116.53 344.146 116.7 343.72 116.701ZM339.748 112.998C339.437 112.998 339.138 113.122 338.918 113.342C338.698 113.561 338.575 113.859 338.574 114.17V115.096C338.575 115.407 338.698 115.705 338.918 115.925C339.138 116.145 339.437 116.269 339.748 116.269H343.72C344.032 116.269 344.33 116.145 344.55 115.925C344.77 115.705 344.894 115.407 344.894 115.096V114.17C344.894 113.859 344.77 113.561 344.55 113.341C344.33 113.122 344.031 112.998 343.72 112.998H339.748Z" fill="#FF473D"/>
    <path d="M338.179 114.292C337.999 114.029 337.786 113.882 337.546 113.853C337.075 113.796 336.619 114.197 336.614 114.2L336.325 113.878C336.348 113.855 336.925 113.341 337.596 113.421C337.965 113.465 338.282 113.676 338.537 114.046L338.179 114.292Z" fill="#FF473D"/>
    <path d="M338.373 125.947C338.373 125.947 338.935 126.501 340.682 128.579C340.682 128.579 336.703 129.735 336.308 132.712C336.308 132.712 335.775 128.376 338.373 125.947Z" fill="white"/>
    <path d="M344.356 125.669C344.356 125.669 342.775 128.022 340.682 128.579C340.682 128.579 344.614 130.523 345.736 132.97C345.739 132.97 346.608 127.431 344.356 125.669Z" fill="white"/>
    <path d="M307.273 155.126C307.273 155.126 306.279 149.305 319.854 151.951C333.43 154.597 338.357 155.663 338.357 155.663L337.993 160.605C337.993 160.605 328.099 162.574 316.727 163.69C316.727 163.681 307.405 161.016 307.273 155.126Z" fill="#14204C"/>
    <path d="M337.581 121.607C337.581 121.607 339.217 122.068 342.167 121.275C342.167 121.275 341.006 122.809 338.432 122.786L338.357 121.819L337.581 121.607Z" fill="#F1A080"/>
    <path d="M333.496 104.748C333.496 104.748 335.291 102.519 337.367 105.954C339.442 109.388 345.592 113.624 347.281 112.434C348.871 111.312 349.385 113.539 349.666 112.048C349.881 110.889 350.57 107.361 348.335 104.966C343.223 99.4937 335.028 100.169 333.496 104.748Z" fill="#062051"/>
    <path d="M330.647 111.312C330.647 111.312 330.962 103.061 333.496 104.748C333.496 104.748 334.642 101.916 332.712 101.676C330.781 101.435 327.677 105.042 330.647 111.312Z" fill="#062051"/>
    <path d="M348.484 111.745C348.484 111.745 350.118 112.529 347.824 114.503C345.53 116.476 344.895 118.198 344.895 118.198C344.895 118.198 347.187 115.337 348.002 114.976C348.817 114.615 349.938 112.714 349.605 111.554C349.271 110.394 348.484 111.745 348.484 111.745Z" fill="#062051"/>
    <path d="M109.766 71.2994L188.806 73.9498V75.9985L109.766 73.649V71.2994Z" fill="#F85840"/>
    <path d="M109.766 72.6326L188.806 74.648V68.2504L109.766 65.0597V72.6326Z" fill="#FFE7E5"/>
    <path d="M109.766 116.98L188.806 119.632V121.679L109.723 122.2L109.766 116.98Z" fill="#F85840"/>
    <path d="M109.744 121.12L188.806 120.329V113.931L109.766 114.018L109.744 121.12Z" fill="#FFB1A9"/>
    <path d="M109.766 39.8379L117.2 40.3998L116.711 65.34L109.766 65.0596V39.8379Z" fill="#F85840"/>
    <path d="M117.2 35.9007L124.634 36.5635L124.152 65.6216L117.2 65.3595V35.9007Z" fill="#51BACD"/>
    <path d="M124.634 40.5804L132.068 41.1433L131.581 66.0824L124.634 65.802V40.5804Z" fill="#1988A4"/>
    <path d="M132.068 36.643L139.502 37.3059L139.02 66.3651L132.068 66.1019V36.643Z" fill="#DAF0FD"/>
    <path d="M139.837 36.8375L144.673 37.0566L147.04 66.0201L142.55 66.1706L139.837 36.8375Z" fill="#1988A4"/>
    <path d="M148.49 36.5795L157.255 37.4218L156.088 66.4616L147.884 66.0319L148.49 36.5795Z" fill="#F8753F"/>
    <path d="M107.222 89.6938L114.675 89.8925L115.408 114.826L108.457 114.885L107.222 89.6938Z" fill="#1988A4"/>
    <path d="M114.454 85.3987L121.912 85.6974L122.853 114.744L115.896 114.822L114.454 85.3987Z" fill="#1988A4"/>
    <path d="M122.109 89.7089L129.561 89.9076L130.295 114.841L123.343 114.9L122.109 89.7089Z" fill="#1988A4"/>
    <path d="M129.341 85.4138L136.798 85.7125L137.739 114.76L130.783 114.837L129.341 85.4138Z" fill="#81B8D3"/>
    <path d="M137.11 85.2279L141.951 85.2096L145.732 114.024L141.257 114.393L137.11 85.2279Z" fill="#BF512B"/>
    <path d="M145.74 84.5468L154.535 84.9603L154.792 114.023L146.578 113.994L145.74 84.5468Z" fill="#BF512B"/>
    <path d="M110.9 89.5133L118.352 89.712L119.086 114.646L112.135 114.705L110.9 89.5133Z" fill="#8E0025"/>
    <path d="M118.133 85.2182L125.59 85.5169L126.531 114.564L119.575 114.642L118.133 85.2182Z" fill="#51BACD"/>
    <path d="M125.786 89.5295L133.24 89.7272L133.973 114.661L127.022 114.721L125.786 89.5295Z" fill="#1988A4"/>
    <path d="M133.019 85.2332L140.477 85.5318L141.418 114.579L134.461 114.657L133.019 85.2332Z" fill="#DAF0FD"/>
    <path d="M140.789 85.0474L145.629 85.0302L149.411 113.843L144.934 114.214L140.789 85.0474Z" fill="#FEC435"/>
    <path d="M157.204 88.7044L164.658 88.8279L165.645 113.753L158.694 113.882L157.204 88.7044Z" fill="#8E0025"/>
    <path d="M158.526 88.6657L165.98 88.7882L166.967 113.713L160.016 113.843L158.526 88.6657Z" fill="#F85840"/>
    <path d="M149.418 84.3674L158.214 84.78L158.471 113.843L150.255 113.814L149.418 84.3674Z" fill="#FEC435"/>
    <path d="M137.644 140.977L145.098 141.101L146.084 166.025L139.134 166.155L137.644 140.977Z" fill="#BF512B"/>
    <path d="M144.832 136.609L152.292 136.833L153.528 165.868L146.573 166.016L144.832 136.609Z" fill="#1988A4"/>
    <path d="M152.53 140.842L159.984 140.965L160.97 165.891L154.02 166.02L152.53 140.842Z" fill="#1988A4"/>
    <path d="M159.719 136.474L167.178 136.697L168.414 165.733L161.458 165.881L159.719 136.474Z" fill="#81B8D3"/>
    <path d="M167.486 136.208L172.326 136.143L176.4 164.916L171.927 165.331L167.486 136.208Z" fill="#D39202"/>
    <path d="M176.107 135.441L184.907 135.766L185.459 164.824L177.244 164.878L176.107 135.441Z" fill="#8E0025"/>
    <path d="M141.32 140.76L148.775 140.883L149.761 165.808L142.811 165.938L141.32 140.76Z" fill="#F85840"/>
    <path d="M148.509 136.392L155.969 136.615L157.204 165.651L150.249 165.799L148.509 136.392Z" fill="#51BACD"/>
    <path d="M156.206 140.625L163.661 140.747L164.647 165.673L157.696 165.803L156.206 140.625Z" fill="#1988A4"/>
    <path d="M163.394 136.257L170.855 136.479L172.09 165.516L165.135 165.664L163.394 136.257Z" fill="#DAF0FD"/>
    <path d="M171.162 135.992L176.002 135.925L180.075 164.699L175.603 165.114L171.162 135.992Z" fill="#FEC435"/>
    <path d="M179.784 135.224L188.584 135.548L189.135 164.607L180.919 164.661L179.784 135.224Z" fill="#F8753F"/>
    <path d="M109.277 137.903L116.737 138.126L117.973 167.162L111.017 167.31L109.277 137.903Z" fill="#81B8D3"/>
    <path d="M117.045 137.637L121.885 137.571L125.959 166.345L121.486 166.76L117.045 137.637Z" fill="#D39202"/>
    <path d="M125.666 136.87L134.467 137.194L135.017 166.253L126.803 166.307L125.666 136.87Z" fill="#BF512B"/>
    <path d="M112.954 137.686L120.414 137.908L121.649 166.945L114.694 167.093L112.954 137.686Z" fill="#DAF0FD"/>
    <path d="M120.72 137.42L125.562 137.354L129.635 166.127L125.163 166.543L120.72 137.42Z" fill="#FEC435"/>
    <path d="M129.343 136.653L138.142 136.977L138.694 166.036L130.479 166.089L129.343 136.653Z" fill="#F8753F"/>
    <path d="M110.783 137.733L118.244 137.956L119.478 166.992L112.524 167.14L110.783 137.733Z" fill="#81B8D3"/>
    <path d="M118.55 137.468L123.391 137.401L127.464 166.175L122.992 166.59L118.55 137.468Z" fill="#8E0025"/>
    <path d="M127.173 136.7L135.972 137.024L136.524 166.083L128.308 166.137L127.173 136.7Z" fill="#1988A4"/>
    <path d="M114.46 137.516L121.919 137.738L123.155 166.775L116.2 166.923L114.46 137.516Z" fill="#DAF0FD"/>
    <path d="M122.227 137.251L127.067 137.184L131.141 165.957L126.668 166.373L122.227 137.251Z" fill="#F85840"/>
    <path d="M130.848 136.483L139.648 136.807L140.2 165.866L131.985 165.92L130.848 136.483Z" fill="#DAF0FD"/>
    <path d="M109.766 171.017L188.806 169.419V171.762L109.723 176.237L109.766 171.017Z" fill="#F85840"/>
    <path d="M109.744 175.157L188.806 170.316V163.681L109.766 168.056L109.744 175.157Z" fill="#FFE7E5"/>
    <path d="M301.015 155.274C301.015 156.349 301.019 157.423 301.026 158.497C300.865 158.508 300.703 158.526 300.54 158.526C296.335 158.526 292.13 158.526 287.926 158.526C286.655 158.526 285.384 158.515 284.113 158.526C283.753 158.526 283.595 158.419 283.548 158.044C283.456 157.268 283.458 156.483 283.553 155.707C283.592 155.379 283.725 155.263 284.05 155.264C289.706 155.272 295.361 155.276 301.015 155.274Z" fill="#FBFBFA"/>
    <path d="M284.41 153.591C284.41 152.627 284.41 151.664 284.41 150.701C284.426 150.697 284.442 150.694 284.459 150.693C290.114 150.688 295.769 150.682 301.425 150.674C301.71 150.674 301.828 150.798 301.885 151.062C302.014 151.659 301.979 152.262 301.953 152.861C301.922 153.559 301.836 153.625 301.129 153.625C295.766 153.625 290.403 153.625 285.042 153.625C284.832 153.622 284.621 153.602 284.41 153.591Z" fill="#FBFBFA"/>
    <path d="M284.235 162.772C284.273 162.291 284.27 161.807 284.225 161.326C284.225 160.978 284.225 160.63 284.225 160.282C284.42 160.269 284.614 160.244 284.808 160.244C289.991 160.244 295.173 160.244 300.356 160.244C301.507 160.244 301.66 160.4 301.654 161.584C301.651 161.795 301.634 162.006 301.602 162.214C301.539 162.644 301.329 162.828 300.85 162.827C295.488 162.808 290.126 162.816 284.764 162.814C284.59 162.813 284.413 162.786 284.235 162.772Z" fill="#FBFBFA"/>
    <path d="M301.166 146.697C301.174 147.529 301.182 148.36 301.189 149.19C301.174 149.195 301.157 149.198 301.141 149.199C295.732 149.203 290.323 149.209 284.915 149.217C284.655 149.217 284.577 149.093 284.529 148.883C284.401 148.293 284.396 147.683 284.514 147.091C284.569 146.78 284.712 146.674 285.037 146.677C287.35 146.691 289.661 146.683 291.978 146.685L301.166 146.697Z" fill="#FBFBFA"/>
    <path d="M301.015 155.274C295.36 155.274 289.705 155.271 284.05 155.265C283.728 155.265 283.592 155.38 283.553 155.708C283.458 156.484 283.456 157.269 283.548 158.045C283.595 158.423 283.753 158.532 284.113 158.527C285.384 158.513 286.655 158.527 287.926 158.527C292.131 158.527 296.335 158.527 300.54 158.527C300.702 158.527 300.862 158.509 301.026 158.498C301.517 158.735 301.533 158.794 301.279 159.432L293.802 159.441C292.85 159.357 291.892 159.357 290.94 159.441C288.835 159.441 286.729 159.441 284.624 159.441C284.4 159.441 284.175 159.473 283.95 159.49C283.708 159.29 283.42 159.383 283.153 159.383C282.858 159.383 282.7 159.257 282.643 158.979C282.344 157.601 282.342 156.175 282.635 154.796C282.695 154.52 282.85 154.379 283.144 154.387C283.466 154.395 283.789 154.375 284.112 154.368C289.44 154.372 294.768 154.376 300.098 154.381C300.519 154.381 300.942 154.41 301.365 154.425C301.521 154.824 301.543 155.164 301.015 155.274Z" fill="#F9BE45"/>
    <path d="M301.369 154.429C300.946 154.414 300.524 154.386 300.102 154.385C294.773 154.378 289.444 154.374 284.116 154.372C283.952 154.013 284.078 153.763 284.411 153.591C284.626 153.602 284.832 153.623 285.044 153.623C290.406 153.623 295.768 153.623 301.131 153.623C301.838 153.623 301.924 153.556 301.955 152.859C301.981 152.26 302.016 151.657 301.887 151.06C301.83 150.795 301.712 150.672 301.427 150.672C295.771 150.683 290.116 150.689 284.461 150.691C284.445 150.692 284.429 150.695 284.413 150.699C284.029 150.6 284.019 150.319 284.074 150.007C284.301 149.892 284.545 149.9 284.789 149.9C290.195 149.9 295.6 149.9 301.007 149.9C301.183 149.9 301.36 149.872 301.537 149.857C301.644 149.868 301.762 149.888 301.874 149.892C302.657 149.926 302.837 150.076 302.915 150.884C303.001 151.738 303.001 152.6 302.915 153.454C302.83 154.279 302.677 154.403 301.852 154.405C301.692 154.411 301.529 154.422 301.369 154.429Z" fill="#A6D9C8"/>
    <path d="M293.802 159.439L301.279 159.431C302.328 159.517 302.424 159.611 302.564 160.706C302.599 160.981 302.631 161.255 302.664 161.53C302.644 162.018 302.572 162.502 302.449 162.974C302.341 163.389 302.126 163.619 301.625 163.619C295.926 163.6 290.226 163.607 284.527 163.606C284.494 163.606 284.461 163.606 284.429 163.606C284.146 163.628 283.86 163.563 283.798 163.276C283.735 162.989 283.997 162.868 284.228 162.775C284.405 162.789 284.583 162.816 284.765 162.816C290.127 162.816 295.489 162.811 300.851 162.829C301.331 162.829 301.541 162.646 301.604 162.217C301.635 162.008 301.652 161.797 301.655 161.586C301.662 160.404 301.508 160.246 300.357 160.246C295.175 160.246 289.992 160.246 284.809 160.246C284.615 160.246 284.421 160.271 284.227 160.284C283.808 160.137 283.805 159.841 283.946 159.494C284.171 159.477 284.395 159.445 284.62 159.445C286.726 159.441 288.831 159.441 290.935 159.445L293.802 159.439Z" fill="#9A3234"/>
    <path d="M301.537 149.862C301.361 149.877 301.183 149.905 301.007 149.905C295.6 149.905 290.195 149.905 284.789 149.905C284.545 149.905 284.301 149.893 284.074 150.012C283.865 149.978 283.788 149.829 283.728 149.647C283.36 148.528 283.459 147.403 283.69 146.278C283.762 145.929 284.035 145.905 284.335 145.906C286.241 145.913 288.147 145.913 290.053 145.906H300.61C300.756 145.901 300.903 145.904 301.049 145.914C301.264 145.935 301.487 145.971 301.544 146.226C301.609 146.524 301.402 146.627 301.167 146.696L291.979 146.684C289.665 146.684 287.355 146.69 285.039 146.676C284.716 146.676 284.57 146.783 284.515 147.09C284.397 147.682 284.402 148.292 284.53 148.882C284.578 149.097 284.656 149.217 284.916 149.216C290.324 149.206 295.732 149.199 301.142 149.198C301.159 149.197 301.175 149.194 301.191 149.189C301.529 149.297 301.598 149.546 301.537 149.862Z" fill="#9A3234"/>
    <path d="M139.702 212.863L140.503 212.894C141.369 213.196 142.28 213.17 143.175 213.268C143.687 213.325 144.373 213.237 144.496 213.898C144.614 214.534 143.929 214.629 143.515 214.88C137.654 216.873 131.794 218.869 125.936 220.867C125.581 220.991 125.199 221.011 124.834 220.925C120.389 219.938 115.941 218.956 111.489 217.978C110.377 217.733 110.199 217.862 109.977 219.052L109.945 219.513C109.891 220.794 110.213 221.411 111.02 221.575L111.352 221.63C111.7 221.802 112.083 221.89 112.471 221.886L112.794 221.945C113.087 222.136 113.426 222.16 113.762 222.198L114.091 222.246C114.387 222.406 114.722 222.481 115.058 222.461L115.545 222.568C116.65 222.907 117.779 223.167 118.921 223.347L119.244 223.401C119.814 223.615 120.41 223.756 121.016 223.82L121.984 224.014C122.335 224.201 122.719 224.244 123.108 224.274L123.43 224.345C124.667 224.795 125.867 224.935 127.153 224.378C128.499 223.793 129.925 223.393 131.316 222.908C135.433 221.47 139.55 220.03 143.666 218.588C144.02 218.695 144.448 218.742 144.428 219.256C144.408 219.719 144.031 219.839 143.675 219.978C142.707 220.357 141.674 220.567 140.763 221.097C140.632 221.117 140.502 221.145 140.374 221.181C136.395 222.553 132.434 223.954 128.447 225.284C127.301 225.667 126.213 226.383 124.898 226.083C121.764 225.369 118.631 224.651 115.49 223.969C113.769 223.595 112.072 223.073 110.308 222.895C109.418 222.566 109.047 221.853 108.864 220.987C108.79 220.708 108.698 220.434 108.591 220.166L108.582 219.844C108.649 219.199 108.717 218.553 108.786 217.904C108.803 217.867 108.807 217.825 108.798 217.786C109.198 217.645 109.279 217.231 109.505 216.945C109.803 216.534 110.229 216.234 110.716 216.092C114.234 215.081 117.726 213.981 121.255 213.026C123.354 212.458 125.371 211.481 127.626 211.585L127.949 211.608C129.918 211.961 131.909 212.17 133.909 212.234L134.389 212.263C135.219 212.542 136.099 212.639 136.97 212.549L137.451 212.572C138.175 212.814 138.939 212.913 139.702 212.863Z" fill="#ED5940"/>
    <path d="M110.296 222.896C112.06 223.073 113.754 223.595 115.478 223.97C118.619 224.652 121.753 225.367 124.886 226.085C126.201 226.384 127.29 225.668 128.435 225.285C132.422 223.955 136.393 222.554 140.362 221.182C140.489 221.147 140.619 221.118 140.75 221.098L143.861 221.539C144.113 221.611 144.345 221.712 144.497 221.942C144.523 222.293 144.368 222.587 144.18 222.859L144.135 222.866C143.92 222.866 143.714 222.885 143.555 223.055C143.217 223.14 142.877 223.213 142.544 223.311C135.329 225.448 128.116 227.589 120.902 229.733C120.5 229.875 120.06 229.87 119.661 229.72C115.957 228.307 112.235 226.946 108.547 225.497C107.749 225.183 107.485 225.423 107.324 226.117C106.807 227.38 107.307 229.153 108.36 229.531C112.187 230.91 116.027 232.251 119.866 233.606L120.189 233.708C120.521 233.934 120.806 233.674 121.085 233.587C125.039 232.349 128.988 231.099 132.934 229.837C136.499 228.701 140.061 227.56 143.622 226.414L144.28 226.447C144.676 227.328 144.588 227.54 143.7 227.836C143.055 228.051 142.387 228.202 141.781 228.529C141.31 228.499 140.941 228.8 140.515 228.913C140.204 228.988 139.887 229.044 139.582 229.141C136.11 230.236 132.634 231.32 129.172 232.445C127.451 233.004 125.672 233.426 124.01 234.163C123.139 234.324 122.291 234.589 121.484 234.952C120.58 235.299 119.729 235.087 118.881 234.737C118.581 234.63 118.275 234.541 117.964 234.47C116.459 233.807 114.893 233.303 113.325 232.812C111.91 232.161 110.421 231.704 108.951 231.207C108.697 231.063 108.44 230.926 108.137 230.915C106.273 230.096 105.715 228.501 105.596 226.644C105.737 226.501 105.734 226.322 105.722 226.143C105.737 226.093 105.747 226.041 105.75 225.989L105.874 225.814L106.065 225.369L106.21 225.172C106.272 225.054 106.332 224.936 106.392 224.818C106.404 224.785 106.407 224.75 106.402 224.716V224.704C106.476 224.679 106.543 224.635 106.594 224.575C106.645 224.515 106.678 224.443 106.691 224.366H106.681L106.843 224.201L107.165 223.864L107.388 223.588L107.649 223.56C108.54 223.368 109.469 223.319 110.296 222.896Z" fill="#394F5C"/>
    <path d="M143.657 218.588C139.54 220.028 135.424 221.468 131.306 222.908C129.916 223.394 128.49 223.793 127.144 224.378C125.853 224.935 124.657 224.796 123.421 224.345C123.671 224.124 123.93 224.309 124.187 224.328C124.444 224.348 124.664 224.31 124.803 224.055C125.353 223.049 124.689 221.674 123.558 221.42C122.36 221.15 121.148 220.953 119.954 220.686C118.422 220.345 116.899 219.968 115.365 219.628C114.227 219.377 113.049 219.306 111.941 218.871C111.306 218.621 110.565 218.305 109.978 219.052C110.2 217.862 110.378 217.733 111.49 217.978C115.939 218.958 120.387 219.94 124.834 220.925C125.199 221.011 125.582 220.991 125.936 220.867C131.795 218.866 137.654 216.871 143.514 214.88V215.175C143.488 215.282 143.461 215.398 143.434 215.51C143.128 216.563 143.367 217.577 143.657 218.588Z" fill="#EBF1E2"/>
    <path d="M108.945 231.202C110.416 231.699 111.903 232.156 113.317 232.807C112.316 233.11 111.356 232.729 110.385 232.618C109.645 232.533 109.183 232.725 109.075 233.505C108.709 234.674 109.194 235.886 110.116 236.026C116.545 237.014 122.973 238.003 129.407 238.955C130.402 239.102 131.386 239.443 132.418 239.272C132.577 239.37 132.698 239.336 132.781 239.164C133.781 238.577 134.557 237.716 135.422 236.966C138.712 234.109 141.982 231.224 145.258 228.349L146.111 228.412L146.094 228.403L146.327 228.833C146.315 228.946 146.302 229.058 146.29 229.171C145.895 229.571 145.501 229.97 145.108 230.369L145.158 230.386L145.107 230.375C145.045 230.381 144.986 230.406 144.94 230.447C144.894 230.489 144.862 230.544 144.851 230.605L144.842 230.612C143.677 231.426 142.675 232.438 141.604 233.356C138.88 235.698 136.172 238.057 133.482 240.435C132.844 240.999 132.148 240.773 131.503 240.669C128.385 240.174 125.266 239.679 122.139 239.24C119.044 238.803 115.96 238.289 112.875 237.791C111.826 237.623 110.767 237.563 109.718 237.362C109.09 237.241 108.697 236.975 108.382 236.485C107.428 235.005 107.343 233.477 108.167 231.918C108.207 231.861 108.247 231.803 108.287 231.745C108.349 231.729 108.405 231.693 108.445 231.643C108.485 231.592 108.507 231.53 108.509 231.466L108.945 231.202Z" fill="#F9BE45"/>
    <path d="M109.978 219.048C110.565 218.296 111.306 218.618 111.941 218.866C113.049 219.296 114.227 219.372 115.365 219.624C116.899 219.963 118.422 220.34 119.954 220.682C121.149 220.948 122.36 221.146 123.558 221.416C124.689 221.669 125.353 223.044 124.803 224.051C124.664 224.306 124.44 224.343 124.188 224.324C123.935 224.304 123.671 224.12 123.421 224.341L123.098 224.27C122.807 223.822 122.426 223.762 121.974 224.01L121.007 223.816C120.576 223.367 119.624 223.142 119.234 223.397L118.912 223.343C118.829 222.899 118.559 222.722 118.113 222.733C117.497 222.763 116.881 222.669 116.301 222.459C116.175 222.407 116.038 222.39 115.903 222.409C115.769 222.428 115.642 222.482 115.535 222.566L115.049 222.459C114.786 222.136 114.482 221.983 114.081 222.244L113.752 222.196C113.513 221.796 113.206 221.658 112.784 221.943L112.462 221.884C112.152 221.521 111.787 221.398 111.342 221.628L111.011 221.572C110.688 220.968 110.01 220.491 110.343 219.639C110.382 219.542 110.092 219.524 109.94 219.51L109.978 219.048Z" fill="#FBFBFA"/>
    <path d="M143.343 223.864C143.439 224.714 143.236 225.596 143.624 226.413C140.061 227.554 136.499 228.695 132.936 229.836C128.993 231.094 125.043 232.344 121.086 233.585C120.808 233.672 120.523 233.932 120.19 233.707C120.09 233.101 119.99 232.495 119.89 231.89C119.768 231.138 120.105 230.824 120.833 230.61C124.656 229.48 128.46 228.289 132.269 227.115C135.387 226.154 138.506 225.176 141.625 224.233C142.18 224.065 142.73 223.807 143.343 223.864Z" fill="#FBFBFA"/>
    <path d="M132.417 239.272C131.386 239.443 130.402 239.102 129.406 238.955C122.972 238.003 116.544 237.014 110.115 236.026C109.192 235.886 108.708 234.674 109.074 233.505C110.76 233.579 112.414 233.922 114.089 234.097C115.379 234.231 116.64 234.62 117.96 234.464C118.271 234.536 118.577 234.625 118.877 234.732C119.725 235.084 120.576 235.296 121.48 234.947C121.625 235.008 121.765 235.104 121.91 235.125C125.174 235.563 128.436 236.006 131.704 236.414C132.2 236.475 132.326 236.629 132.289 237.116C132.239 237.833 132.203 238.563 132.417 239.272Z" fill="#FBFBFA"/>
    <path d="M124.002 234.16C125.671 233.425 127.444 233.003 129.171 232.441C132.633 231.316 136.109 230.232 139.581 229.138C139.886 229.041 140.203 228.985 140.511 228.911C140.396 229.391 140.031 229.663 139.677 229.955C137.734 231.55 135.768 233.118 133.87 234.768C133.251 235.305 132.655 235.428 131.896 235.325C129.776 235.039 127.649 234.802 125.528 234.523C125.014 234.458 124.453 234.529 124.002 234.16Z" fill="#F9BE45"/>
    <path d="M119.863 233.605C116.028 232.25 112.187 230.909 108.357 229.53C107.304 229.152 106.804 227.381 107.321 226.116C108.945 226.741 110.573 227.358 112.194 227.993C114.463 228.882 116.727 229.787 118.993 230.678C119.316 230.807 119.57 231.001 119.541 231.382C119.487 232.155 119.738 232.869 119.863 233.605Z" fill="#FBFBFA"/>
    <path d="M145.017 225.787C145.088 226.646 145.042 227.506 145.257 228.352C141.98 231.227 138.711 234.112 135.421 236.97C134.56 237.722 133.78 238.581 132.78 239.168C132.536 238.828 132.5 238.436 132.447 238.032C132.256 236.57 133.328 235.896 134.236 235.131C136.625 233.12 139.03 231.128 141.427 229.126C141.613 228.971 141.781 228.795 141.78 228.525C142.386 228.203 143.054 228.046 143.699 227.832C144.587 227.537 144.675 227.324 144.28 226.443C144.332 226.278 144.428 226.13 144.558 226.014C144.688 225.899 144.847 225.82 145.017 225.787Z" fill="#FBFBFA"/>
    <path d="M119.863 233.605C119.737 232.869 119.487 232.152 119.541 231.386C119.57 231.005 119.317 230.812 118.993 230.683C116.726 229.787 114.463 228.882 112.194 227.997C110.573 227.362 108.945 226.745 107.321 226.12C107.482 225.426 107.751 225.186 108.544 225.5C112.231 226.949 115.954 228.311 119.658 229.723C120.057 229.874 120.497 229.878 120.899 229.736C128.112 227.588 135.326 225.447 142.541 223.314C142.874 223.216 143.214 223.143 143.551 223.058C143.551 223.112 143.551 223.166 143.561 223.218C143.489 223.433 143.415 223.648 143.337 223.863C142.727 223.806 142.176 224.064 141.617 224.232C138.492 225.175 135.38 226.153 132.261 227.114C128.452 228.288 124.649 229.477 120.826 230.609C120.094 230.823 119.76 231.139 119.883 231.889C119.982 232.495 120.082 233.101 120.183 233.706L119.863 233.605Z" fill="#EBF1E2"/>
    <path d="M141.78 228.528C141.78 228.797 141.613 228.973 141.427 229.128C139.03 231.131 136.625 233.122 134.236 235.134C133.328 235.896 132.256 236.57 132.447 238.034C132.5 238.438 132.536 238.83 132.78 239.17C132.697 239.338 132.576 239.372 132.417 239.277C132.202 238.568 132.239 237.839 132.292 237.121C132.329 236.635 132.203 236.476 131.707 236.42C128.439 236.013 125.177 235.571 121.913 235.13C121.763 235.11 121.623 235.013 121.483 234.952C122.29 234.589 123.138 234.324 124.009 234.163C124.458 234.532 125.02 234.461 125.538 234.529C127.659 234.807 129.786 235.044 131.905 235.33C132.665 235.438 133.26 235.314 133.88 234.774C135.773 233.123 137.739 231.551 139.687 229.961C140.04 229.67 140.406 229.397 140.521 228.916C140.941 228.799 141.309 228.502 141.78 228.528Z" fill="#EBF1E2"/>
    <path opacity="0.34" d="M161 18.3066L113.293 195.805L154.792 192.136L187.02 20.9526L161 18.3066Z" fill="white"/>
    <path d="M180.075 97.1001L193.285 77.5196L180.075 69.2882L167.486 86.8028L180.075 97.1001Z" fill="#FEC435"/>
    <path d="M194.767 80.0496L193.285 77.5196L180.075 97.1001L182.353 98.2743L194.767 80.0496Z" fill="#F85840"/>
    <path d="M225.469 93.6677C225.469 93.6677 223.596 93.2842 207.451 105.043C207.451 105.043 203.954 102.027 195.857 95.1106C195.134 94.4918 194.391 93.8933 193.61 93.3422C192.829 92.7911 191.452 91.3741 191.529 88.2994C191.637 83.9924 191.744 83.8947 188.573 82.641C185.979 81.6161 186.305 82.6087 186.081 83.726C185.967 84.2997 185.057 84.0483 184.272 84.2073C183.925 84.2761 183.956 86.2356 183.956 86.2356C183.956 86.2356 182.741 86.5794 183.67 88.6088C183.67 88.6088 182.917 89.537 183.993 90.7059C185.068 91.8747 185.638 90.2589 185.853 91.2559C186.068 92.2529 187.783 95.8969 191.431 96.0345C191.431 96.0345 201.158 111.782 205.807 111.988C205.807 111.988 216.12 111.444 225.771 105.112C229.149 102.901 230.172 94.7249 225.469 93.6677Z" fill="#FFE7E5"/>
    <path d="M185.958 83.1759C186.165 83.6056 189.49 84.276 189.49 84.276L185.958 83.1759Z" fill="#FFCECA"/>
    <path d="M183.956 86.2356C183.956 86.2356 186.594 86.8028 187.881 86.8028C187.881 86.8028 184.511 86.3731 184.02 85.0066C183.964 85.4137 183.942 85.8249 183.956 86.2356Z" fill="#FFCECA"/>
    <path d="M183.669 88.6088C183.742 88.6851 186.191 88.5916 186.798 88.3337C186.798 88.3337 183.68 88.2134 183.346 87.6118C183.346 87.6118 183.473 88.4025 183.669 88.6088Z" fill="#FFCECA"/>
    <path d="M191.43 96.0387C192.051 96.0677 191.519 95.2308 191.519 95.2308C188.426 95.0933 185.749 90.0569 185.497 90.2245C185.245 90.3921 185.68 90.9325 185.68 90.9325C185.68 90.9325 185.82 90.9819 185.847 91.2247C185.873 91.4675 187.027 95.8303 191.43 96.0387Z" fill="#FFCECA"/>
    <path d="M204.632 102.621L206.664 105.696L207.451 105.043L204.632 102.621Z" fill="#FFCECA"/>
    <path d="M225.469 93.6678C225.469 93.6678 227.464 100.188 224.352 103.731C221.548 106.925 216.119 109.817 216.119 109.817C216.119 109.817 224.587 106.352 225.77 105.117C225.77 105.117 228.362 103.491 228.625 99.381C228.876 95.4307 226.872 93.7279 225.469 93.6678Z" fill="#FFCECA"/>
    <path opacity="0.18" d="M189.135 146.421L176.4 190.309L189.135 189.096V146.421Z" fill="#062051"/>
    <path opacity="0.1" d="M128.119 15.0526L109.8 76.3381C109.8 76.3381 109.289 21.2138 110.364 14.77C110.686 12.8416 128.119 15.0526 128.119 15.0526Z" fill="#062051"/>
</svg>
